<svg width="63" height="63" viewBox="0 0 63 63" fill="none" xmlns="http://www.w3.org/2000/svg">
<g clip-path="url(#clip0_76_7)">
<path d="M18.1986 40.95H44.0066C44.3653 40.9505 44.7183 40.8591 45.0317 40.6845C45.3451 40.5099 45.6086 40.2579 45.7969 39.9525C45.9853 39.6472 46.0923 39.2987 46.1077 38.9402C46.1231 38.5818 46.0465 38.2254 45.885 37.905L42.5534 31.2501C42.1219 30.3757 41.4534 29.6401 40.6241 29.1273C39.7948 28.6146 38.838 28.3452 37.863 28.35H24.822C23.8975 28.3509 22.9896 28.5954 22.1896 29.0588C21.3896 29.5222 20.7258 30.1882 20.265 30.9897L16.3737 37.8147C16.1928 38.134 16.0987 38.4951 16.1008 38.8621C16.1029 39.2291 16.2012 39.5892 16.3858 39.9064C16.5704 40.2236 16.835 40.4868 17.153 40.6699C17.4711 40.853 17.8316 40.9496 18.1986 40.95ZM32.55 30.45H37.863C38.4475 30.4473 39.021 30.6092 39.5178 30.9171C40.0147 31.2249 40.4149 31.6663 40.6728 32.1909L44.0118 38.85H32.55V30.45ZM22.0899 32.0323C22.3658 31.5515 22.7637 31.152 23.2434 30.8741C23.7231 30.5963 24.2676 30.45 24.822 30.45H30.45V38.85H18.1986L22.0899 32.0323Z" fill="#FD3B3B"/>
<path d="M35.7 43.05H33.6C33.3215 43.05 33.0544 43.1606 32.8575 43.3575C32.6606 43.5544 32.55 43.8215 32.55 44.1C32.55 44.3785 32.6606 44.6455 32.8575 44.8425C33.0544 45.0394 33.3215 45.15 33.6 45.15H35.7C35.9785 45.15 36.2455 45.0394 36.4425 44.8425C36.6394 44.6455 36.75 44.3785 36.75 44.1C36.75 43.8215 36.6394 43.5544 36.4425 43.3575C36.2455 43.1606 35.9785 43.05 35.7 43.05Z" fill="#FD3B3B"/>
<path d="M21 43.05H18.9C18.6215 43.05 18.3544 43.1606 18.1575 43.3575C17.9606 43.5544 17.85 43.8215 17.85 44.1C17.85 44.3785 17.9606 44.6455 18.1575 44.8425C18.3544 45.0394 18.6215 45.15 18.9 45.15H21C21.2785 45.15 21.5455 45.0394 21.7424 44.8425C21.9394 44.6455 22.05 44.3785 22.05 44.1C22.05 43.8215 21.9394 43.5544 21.7424 43.3575C21.5455 43.1606 21.2785 43.05 21 43.05Z" fill="#FD3B3B"/>
<path d="M14.7 52.5C14.077 52.5 13.468 52.6847 12.9499 53.0309C12.4319 53.377 12.0282 53.869 11.7898 54.4445C11.5514 55.0201 11.489 55.6535 11.6105 56.2645C11.7321 56.8756 12.0321 57.4368 12.4726 57.8774C12.9131 58.3179 13.4744 58.6179 14.0855 58.7395C14.6965 58.861 15.3299 58.7986 15.9054 58.5602C16.481 58.3218 16.973 57.9181 17.3191 57.4C17.6652 56.882 17.85 56.273 17.85 55.65C17.85 54.8146 17.5181 54.0134 16.9274 53.4226C16.3366 52.8319 15.5354 52.5 14.7 52.5ZM14.7 56.7C14.4923 56.7 14.2893 56.6384 14.1166 56.523C13.944 56.4077 13.8094 56.2437 13.7299 56.0518C13.6504 55.86 13.6297 55.6488 13.6702 55.4452C13.7107 55.2415 13.8107 55.0544 13.9575 54.9075C14.1044 54.7607 14.2915 54.6607 14.4951 54.6202C14.6988 54.5797 14.9099 54.6005 15.1018 54.6799C15.2937 54.7594 15.4577 54.894 15.573 55.0667C15.6884 55.2393 15.75 55.4423 15.75 55.65C15.75 55.9285 15.6394 56.1955 15.4425 56.3925C15.2455 56.5894 14.9785 56.7 14.7 56.7Z" fill="#FD3B3B"/>
<path d="M47.25 52.5C46.627 52.5 46.0179 52.6847 45.4999 53.0309C44.9819 53.377 44.5782 53.869 44.3398 54.4445C44.1013 55.0201 44.039 55.6535 44.1605 56.2645C44.282 56.8756 44.5821 57.4368 45.0226 57.8774C45.4631 58.3179 46.0244 58.6179 46.6354 58.7395C47.2465 58.861 47.8798 58.7986 48.4554 58.5602C49.031 58.3218 49.523 57.9181 49.8691 57.4C50.2152 56.882 50.4 56.273 50.4 55.65C50.4 54.8146 50.0681 54.0134 49.4774 53.4226C48.8866 52.8319 48.0854 52.5 47.25 52.5ZM47.25 56.7C47.0423 56.7 46.8393 56.6384 46.6666 56.523C46.494 56.4077 46.3594 56.2437 46.2799 56.0518C46.2004 55.86 46.1796 55.6488 46.2202 55.4452C46.2607 55.2415 46.3607 55.0544 46.5075 54.9075C46.6544 54.7607 46.8415 54.6607 47.0451 54.6202C47.2488 54.5797 47.4599 54.6005 47.6518 54.6799C47.8437 54.7594 48.0076 54.894 48.123 55.0667C48.2384 55.2393 48.3 55.4423 48.3 55.65C48.3 55.9285 48.1894 56.1955 47.9924 56.3925C47.7955 56.5894 47.5285 56.7 47.25 56.7Z" fill="#FD3B3B"/>
<path d="M18.9001 12.6C18.9001 11.354 18.5306 10.1359 17.8383 9.0999C17.1461 8.06387 16.1621 7.25638 15.011 6.77955C13.8598 6.30272 12.5931 6.17796 11.371 6.42104C10.1489 6.66413 9.02635 7.26415 8.14528 8.14522C7.26421 9.02629 6.66419 10.1488 6.4211 11.3709C6.17802 12.593 6.30278 13.8597 6.77961 15.0109C7.25644 16.1621 8.06393 17.146 9.09996 17.8382C10.136 18.5305 11.354 18.9 12.6001 18.9C14.2704 18.8983 15.8719 18.234 17.053 17.0529C18.2341 15.8718 18.8984 14.2703 18.9001 12.6ZM12.6001 16.8C11.7694 16.8 10.9573 16.5537 10.2667 16.0922C9.57597 15.6307 9.03765 14.9747 8.71976 14.2073C8.40187 13.4398 8.3187 12.5953 8.48075 11.7806C8.64281 10.9659 9.04282 10.2175 9.6302 9.63014C10.2176 9.04276 10.966 8.64275 11.7807 8.48069C12.5954 8.31863 13.4399 8.40181 14.2073 8.7197C14.9748 9.03758 15.6307 9.57591 16.0922 10.2666C16.5537 10.9573 16.8001 11.7693 16.8001 12.6C16.8001 13.7139 16.3576 14.7822 15.5699 15.5698C14.7822 16.3575 13.714 16.8 12.6001 16.8Z" fill="#FD3B3B"/>
<path d="M12.6 4.2C12.8785 4.2 13.1455 4.08938 13.3424 3.89246C13.5394 3.69555 13.65 3.42848 13.65 3.15V1.05C13.65 0.771523 13.5394 0.504451 13.3424 0.307538C13.1455 0.110625 12.8785 0 12.6 0C12.3215 0 12.0544 0.110625 11.8575 0.307538C11.6606 0.504451 11.55 0.771523 11.55 1.05V3.15C11.55 3.42848 11.6606 3.69555 11.8575 3.89246C12.0544 4.08938 12.3215 4.2 12.6 4.2Z" fill="#FD3B3B"/>
<path d="M6.96567 4.94132C7.10589 5.18052 7.33504 5.35454 7.6031 5.42541C7.87116 5.49628 8.15637 5.45825 8.3965 5.31961C8.63662 5.18097 8.81216 4.95298 8.8848 4.6854C8.95745 4.41781 8.92131 4.13235 8.78427 3.89132L7.73427 2.07272C7.66583 1.95234 7.57425 1.84669 7.46481 1.76185C7.35537 1.67701 7.23023 1.61465 7.09659 1.57837C6.96296 1.54209 6.82346 1.5326 6.68615 1.55045C6.54883 1.56829 6.41639 1.61313 6.29647 1.68237C6.17655 1.75161 6.07151 1.84388 5.9874 1.95388C5.90328 2.06388 5.84176 2.18943 5.80636 2.32331C5.77097 2.45718 5.7624 2.59673 5.78116 2.73393C5.79992 2.87113 5.84563 3.00326 5.91567 3.12272L6.96567 4.94132Z" fill="#FD3B3B"/>
<path d="M2.07266 7.73433L3.89126 8.78433C4.01072 8.85436 4.14285 8.90007 4.28005 8.91883C4.41724 8.93759 4.5568 8.92903 4.69067 8.89363C4.82455 8.85824 4.9501 8.79671 5.0601 8.7126C5.1701 8.62848 5.26237 8.52344 5.33161 8.40352C5.40085 8.2836 5.44568 8.15117 5.46353 8.01385C5.48138 7.87653 5.47189 7.73704 5.43561 7.6034C5.39933 7.46976 5.33697 7.34462 5.25213 7.23519C5.16729 7.12575 5.06164 7.03417 4.94126 6.96573L3.12266 5.91573C3.0032 5.8457 2.87107 5.79998 2.73387 5.78122C2.59667 5.76247 2.45712 5.77103 2.32324 5.80642C2.18937 5.84182 2.06382 5.90334 1.95382 5.98746C1.84382 6.07157 1.75154 6.17661 1.68231 6.29653C1.61307 6.41645 1.56823 6.54889 1.55038 6.68621C1.53254 6.82353 1.54203 6.96302 1.57831 7.09666C1.61459 7.23029 1.67695 7.35543 1.76179 7.46487C1.84663 7.57431 1.95228 7.66589 2.07266 7.73433Z" fill="#FD3B3B"/>
<path d="M1.05 13.65H3.15C3.42848 13.65 3.69555 13.5394 3.89246 13.3424C4.08938 13.1455 4.2 12.8785 4.2 12.6C4.2 12.3215 4.08938 12.0544 3.89246 11.8575C3.69555 11.6606 3.42848 11.55 3.15 11.55H1.05C0.771523 11.55 0.504451 11.6606 0.307538 11.8575C0.110625 12.0544 0 12.3215 0 12.6C0 12.8785 0.110625 13.1455 0.307538 13.3424C0.504451 13.5394 0.771523 13.65 1.05 13.65Z" fill="#FD3B3B"/>
<path d="M3.89126 16.4157L2.07266 17.4657C1.95228 17.5342 1.84663 17.6257 1.76179 17.7352C1.67695 17.8446 1.61459 17.9698 1.57831 18.1034C1.54203 18.237 1.53254 18.3765 1.55038 18.5139C1.56823 18.6512 1.61307 18.7836 1.68231 18.9035C1.75154 19.0234 1.84382 19.1285 1.95382 19.2126C2.06382 19.2967 2.18937 19.3582 2.32324 19.3936C2.45712 19.429 2.59667 19.4376 2.73387 19.4188C2.87107 19.4001 3.0032 19.3544 3.12266 19.2843L4.94126 18.2343C5.06164 18.1659 5.16729 18.0743 5.25213 17.9649C5.33697 17.8554 5.39933 17.7303 5.43561 17.5967C5.47189 17.463 5.48138 17.3235 5.46353 17.1862C5.44568 17.0489 5.40085 16.9165 5.33161 16.7965C5.26237 16.6766 5.1701 16.5716 5.0601 16.4875C4.9501 16.4033 4.82455 16.3418 4.69067 16.3064C4.5568 16.271 4.41724 16.2625 4.28005 16.2812C4.14285 16.3 4.01072 16.3457 3.89126 16.4157Z" fill="#FD3B3B"/>
<path d="M6.29996 23.5127C6.41943 23.5816 6.55131 23.6263 6.68806 23.6442C6.82481 23.6621 6.96374 23.6529 7.09694 23.6171C7.23013 23.5813 7.35497 23.5197 7.46432 23.4356C7.57368 23.3516 7.6654 23.2468 7.73426 23.1273L8.78426 21.3087C8.9213 21.0677 8.95744 20.7822 8.8848 20.5146C8.81215 20.2471 8.63661 20.0191 8.39649 19.8804C8.15637 19.7418 7.87116 19.7038 7.6031 19.7746C7.33504 19.8455 7.10589 20.0195 6.96566 20.2587L5.91566 22.0773C5.84655 22.1968 5.80168 22.3287 5.78359 22.4655C5.76551 22.6023 5.77457 22.7413 5.81026 22.8747C5.84595 23.008 5.90757 23.1329 5.9916 23.2424C6.07563 23.3519 6.18041 23.4437 6.29996 23.5127Z" fill="#FD3B3B"/>
<path d="M11.55 22.05V24.15C11.55 24.4285 11.6606 24.6955 11.8575 24.8925C12.0544 25.0894 12.3215 25.2 12.6 25.2C12.8785 25.2 13.1455 25.0894 13.3424 24.8925C13.5394 24.6955 13.65 24.4285 13.65 24.15V22.05C13.65 21.7715 13.5394 21.5045 13.3424 21.3075C13.1455 21.1106 12.8785 21 12.6 21C12.3215 21 12.0544 21.1106 11.8575 21.3075C11.6606 21.5045 11.55 21.7715 11.55 22.05Z" fill="#FD3B3B"/>
<path d="M16.8 5.32562C17.0412 5.46485 17.3278 5.50258 17.5967 5.43051C17.8657 5.35844 18.0951 5.18248 18.2343 4.94132L19.2843 3.12272C19.3543 3.00326 19.4 2.87113 19.4188 2.73393C19.4376 2.59673 19.429 2.45718 19.3936 2.32331C19.3582 2.18943 19.2967 2.06388 19.2126 1.95388C19.1285 1.84388 19.0234 1.75161 18.9035 1.68237C18.7836 1.61313 18.6511 1.56829 18.5138 1.55045C18.3765 1.5326 18.237 1.54209 18.1034 1.57837C17.9697 1.61465 17.8446 1.67701 17.7352 1.76185C17.6257 1.84669 17.5341 1.95234 17.4657 2.07272L16.4157 3.89132C16.2765 4.13248 16.2387 4.41908 16.3108 4.68806C16.3829 4.95704 16.5588 5.18638 16.8 5.32562Z" fill="#FD3B3B"/>
<path d="M20.79 8.92503C20.9744 8.92542 21.1555 8.87687 21.315 8.78433L23.1336 7.73433C23.254 7.66589 23.3596 7.57431 23.4445 7.46487C23.5293 7.35543 23.5917 7.23029 23.628 7.09666C23.6642 6.96302 23.6737 6.82353 23.6559 6.68621C23.638 6.54889 23.5932 6.41645 23.524 6.29653C23.4547 6.17661 23.3624 6.07157 23.2524 5.98746C23.1424 5.90334 23.0169 5.84182 22.883 5.80642C22.7491 5.77103 22.6096 5.76247 22.4724 5.78122C22.3352 5.79998 22.2031 5.8457 22.0836 5.91573L20.265 6.96573C20.0648 7.0813 19.9084 7.2597 19.82 7.47324C19.7315 7.68678 19.716 7.92354 19.7758 8.14679C19.8357 8.37005 19.9675 8.56733 20.1508 8.70804C20.3342 8.84874 20.5589 8.92502 20.79 8.92503Z" fill="#FD3B3B"/>
<path d="M21 12.6C21 12.8785 21.1106 13.1455 21.3075 13.3424C21.5045 13.5394 21.7715 13.65 22.05 13.65H24.15C24.4285 13.65 24.6955 13.5394 24.8925 13.3424C25.0894 13.1455 25.2 12.8785 25.2 12.6C25.2 12.3215 25.0894 12.0544 24.8925 11.8575C24.6955 11.6606 24.4285 11.55 24.15 11.55H22.05C21.7715 11.55 21.5045 11.6606 21.3075 11.8575C21.1106 12.0544 21 12.3215 21 12.6Z" fill="#FD3B3B"/>
<path d="M20.2587 18.2343L22.0773 19.2843C22.1968 19.3544 22.3289 19.4001 22.4661 19.4188C22.6033 19.4376 22.7429 19.429 22.8767 19.3936C23.0106 19.3582 23.1362 19.2967 23.2462 19.2126C23.3562 19.1285 23.4484 19.0234 23.5177 18.9035C23.5869 18.7836 23.6317 18.6512 23.6496 18.5138C23.6674 18.3765 23.6579 18.237 23.6217 18.1034C23.5854 17.9698 23.523 17.8446 23.4382 17.7352C23.3533 17.6257 23.2477 17.5342 23.1273 17.4657L21.3087 16.4157C21.0677 16.2787 20.7822 16.2425 20.5146 16.3152C20.2471 16.3878 20.0191 16.5634 19.8804 16.8035C19.7418 17.0436 19.7038 17.3288 19.7746 17.5969C19.8455 17.8649 20.0195 18.0941 20.2587 18.2343Z" fill="#FD3B3B"/>
<path d="M17.4657 23.1273C17.5342 23.2477 17.6257 23.3533 17.7352 23.4382C17.8446 23.523 17.9698 23.5854 18.1034 23.6217C18.237 23.6579 18.3765 23.6674 18.5138 23.6496C18.6512 23.6317 18.7836 23.5869 18.9035 23.5177C19.0234 23.4484 19.1285 23.3562 19.2126 23.2462C19.2967 23.1362 19.3582 23.0106 19.3936 22.8767C19.429 22.7429 19.4376 22.6033 19.4188 22.4661C19.4001 22.3289 19.3544 22.1968 19.2843 22.0773L18.2343 20.2587C18.0941 20.0195 17.8649 19.8455 17.5969 19.7746C17.3288 19.7038 17.0436 19.7418 16.8035 19.8804C16.5634 20.0191 16.3878 20.2471 16.3152 20.5146C16.2425 20.7822 16.2787 21.0677 16.4157 21.3087L17.4657 23.1273Z" fill="#FD3B3B"/>
<path d="M60.9 15.9274C60.9 15.8686 60.9053 15.8098 60.9053 15.75C60.9012 15.3138 60.8074 14.8832 60.6296 14.4849C60.4519 14.0866 60.194 13.7291 59.8721 13.4348C59.5502 13.1405 59.1711 12.9156 58.7585 12.7741C58.346 12.6327 57.9086 12.5777 57.4739 12.6126C57.1097 11.5557 56.3819 10.6625 55.4203 10.0923C54.4587 9.52224 53.3258 9.3123 52.2238 9.49999C51.1218 9.68768 50.1222 10.2608 49.4036 11.1171C48.6849 11.9733 48.2938 13.0571 48.3 14.175C48.3 14.3614 48.3116 14.5476 48.3347 14.7325C47.4104 14.8564 46.5678 15.327 45.9775 16.0489C45.3873 16.7709 45.0936 17.6903 45.1559 18.6207C45.2183 19.5512 45.632 20.4231 46.3133 21.0599C46.9946 21.6966 47.8925 22.0506 48.825 22.05H59.85C60.5945 22.0518 61.3155 21.7899 61.8852 21.3108C62.4549 20.8316 62.8366 20.1662 62.9624 19.4325C63.0882 18.6987 62.9501 17.9441 62.5726 17.3025C62.1951 16.6609 61.6025 16.1738 60.9 15.9274ZM59.85 19.95H48.825C48.592 19.9504 48.3619 19.8991 48.1511 19.7998C47.9404 19.7005 47.7542 19.5557 47.6062 19.3758C47.4581 19.1959 47.3519 18.9855 47.295 18.7595C47.2381 18.5336 47.232 18.2979 47.2773 18.0693C47.3225 17.8408 47.4178 17.6251 47.5565 17.4378C47.6951 17.2506 47.8735 17.0964 48.0789 16.9865C48.2843 16.8765 48.5116 16.8135 48.7443 16.8019C48.9769 16.7904 49.2093 16.8306 49.4246 16.9197C49.6258 17.0027 49.8478 17.0211 50.06 16.9723C50.2721 16.9236 50.4638 16.8101 50.6086 16.6477C50.7535 16.4852 50.8442 16.2817 50.8684 16.0654C50.8925 15.8491 50.8488 15.6306 50.7434 15.4402C50.5223 15.0549 50.404 14.6192 50.4 14.175C50.3975 13.493 50.6614 12.837 51.1354 12.3467C51.6094 11.8564 52.2562 11.5705 52.9378 11.55C53.6195 11.5294 54.2823 11.7759 54.7849 12.2368C55.2876 12.6977 55.5905 13.3366 55.629 14.0175C55.6394 14.1979 55.6962 14.3726 55.7938 14.5247C55.8915 14.6767 56.0267 14.801 56.1865 14.8855C56.3463 14.9699 56.5251 15.0117 56.7058 15.0068C56.8864 15.0019 57.0627 14.9505 57.2177 14.8575C57.3763 14.7642 57.5566 14.7142 57.7405 14.7125C57.9245 14.7109 58.1057 14.7576 58.2659 14.8479C58.4262 14.9383 58.5599 15.0692 58.6536 15.2276C58.7473 15.3859 58.7978 15.566 58.8 15.75C58.7987 15.9402 58.7445 16.1264 58.6436 16.2876C58.5412 16.4587 58.4898 16.6555 58.4952 16.8548C58.5006 17.0542 58.5626 17.2478 58.674 17.4132C58.7865 17.5788 58.9434 17.7094 59.1267 17.7898C59.31 17.8702 59.5124 17.8973 59.7104 17.8678C59.8558 17.8415 60.0052 17.8462 60.1487 17.8816C60.2922 17.917 60.4266 17.9822 60.5431 18.0731C60.6597 18.164 60.7557 18.2785 60.8249 18.4091C60.8942 18.5396 60.9351 18.6833 60.945 18.8308C60.9549 18.9783 60.9335 19.1262 60.8823 19.2648C60.8311 19.4034 60.7513 19.5297 60.6479 19.6354C60.5445 19.741 60.42 19.8236 60.2826 19.8779C60.1451 19.9321 59.9977 19.9567 59.85 19.95Z" fill="#FD3B3B"/>
<path d="M32.025 13.65H43.05C43.7944 13.6518 44.5154 13.39 45.0852 12.9108C45.6549 12.4316 46.0365 11.7662 46.1623 11.0325C46.2882 10.2988 46.1501 9.54418 45.7726 8.90257C45.395 8.26097 44.8025 7.7738 44.1 7.52748C44.1 7.46868 44.1 7.40988 44.1 7.35003C44.0964 6.91373 44.0028 6.48287 43.8252 6.08434C43.6477 5.6858 43.3898 5.32817 43.0678 5.03375C42.7458 4.73934 42.3666 4.51447 41.9537 4.37319C41.5409 4.23191 41.1034 4.17725 40.6686 4.21263C40.3017 3.1595 39.5735 2.27049 38.6132 1.70346C37.6529 1.13643 36.5227 0.928084 35.4234 1.11542C34.324 1.30276 33.3266 1.87366 32.6084 2.72673C31.8901 3.5798 31.4974 4.65983 31.5 5.77503C31.4999 5.96141 31.5115 6.14762 31.5346 6.33258C30.6104 6.45641 29.7677 6.927 29.1775 7.64897C28.5872 8.37093 28.2935 9.29029 28.3559 10.2207C28.4182 11.1512 28.832 12.0231 29.5133 12.6599C30.1946 13.2967 31.0924 13.6506 32.025 13.65ZM32.025 8.40003C32.2307 8.40057 32.4344 8.44123 32.6245 8.51973C32.8257 8.6027 33.0478 8.62109 33.2599 8.57236C33.472 8.52362 33.6638 8.41017 33.8086 8.2477C33.9534 8.08523 34.0442 7.88176 34.0683 7.66545C34.0925 7.44914 34.0488 7.23068 33.9433 7.04028C33.7222 6.65496 33.604 6.21925 33.6 5.77503C33.5975 5.09304 33.8613 4.43703 34.3354 3.94671C34.8094 3.4564 35.4561 3.17053 36.1378 3.14999C36.8195 3.12946 37.4822 3.37589 37.9849 3.83679C38.4876 4.29768 38.7904 4.93663 38.829 5.61753C38.8393 5.79794 38.8961 5.97263 38.9938 6.12468C39.0914 6.27674 39.2267 6.40101 39.3864 6.48549C39.5462 6.56996 39.7251 6.61177 39.9057 6.60687C40.0864 6.60197 40.2627 6.55053 40.4176 6.45753C40.5765 6.36621 40.7564 6.31781 40.9397 6.31708C41.1229 6.31634 41.3032 6.3633 41.4629 6.45333C41.6225 6.54336 41.7559 6.67337 41.8501 6.83059C41.9443 6.9878 41.9959 7.16681 42 7.35003C41.9986 7.54026 41.9445 7.72638 41.8435 7.88763C41.7412 8.05877 41.6897 8.25552 41.6951 8.45485C41.7005 8.65419 41.7625 8.84786 41.874 9.01322C41.9864 9.17886 42.1433 9.30939 42.3267 9.38982C42.51 9.47025 42.7123 9.4973 42.9103 9.46787C43.0558 9.44156 43.2051 9.44624 43.3486 9.48161C43.4921 9.51698 43.6265 9.58225 43.7431 9.67315C43.8596 9.76404 43.9556 9.87852 44.0249 10.0091C44.0942 10.1396 44.1351 10.2834 44.145 10.4308C44.1548 10.5783 44.1335 10.7262 44.0823 10.8648C44.0311 11.0035 43.9512 11.1297 43.8478 11.2354C43.7445 11.341 43.62 11.4237 43.4825 11.4779C43.345 11.5321 43.1976 11.5567 43.05 11.55H32.025C31.6073 11.55 31.2067 11.3841 30.9113 11.0887C30.6159 10.7933 30.45 10.3927 30.45 9.97502C30.45 9.55731 30.6159 9.1567 30.9113 8.86133C31.2067 8.56596 31.6073 8.40003 32.025 8.40003Z" fill="#FD3B3B"/>
<path d="M61.95 60.9H52.3845C53.5377 59.7726 54.2869 58.2964 54.516 56.7H58.8C59.6354 56.7 60.4366 56.3681 61.0274 55.7774C61.6181 55.1866 61.95 54.3854 61.95 53.55V49.35C61.9482 48.5656 61.862 47.7838 61.6927 47.0179C61.152 44.7033 59.8472 42.6385 57.9888 41.1565C56.1304 39.6746 53.8269 38.862 51.45 38.85H51.0489L46.3102 29.3727C45.532 27.7989 44.3278 26.475 42.8345 25.5518C41.3411 24.6285 39.6187 24.1428 37.863 24.15H24.822C23.1574 24.1517 21.5227 24.5928 20.0831 25.4287C18.6436 26.2646 17.4502 27.4658 16.6236 28.9107L10.9305 38.8678C8.25862 39.0288 5.74877 40.2029 3.91276 42.1507C2.07676 44.0985 1.05291 46.6733 1.05 49.35V54.6C1.05 55.1569 1.27125 55.6911 1.66508 56.0849C2.0589 56.4787 2.59305 56.7 3.15 56.7H7.434C7.66305 58.2964 8.41225 59.7726 9.5655 60.9H1.05C0.771523 60.9 0.504451 61.0106 0.307538 61.2075C0.110625 61.4044 0 61.6715 0 61.95C0 62.2285 0.110625 62.4955 0.307538 62.6924C0.504451 62.8894 0.771523 63 1.05 63H61.95C62.2285 63 62.4955 62.8894 62.6925 62.6924C62.8894 62.4955 63 62.2285 63 61.95C63 61.6715 62.8894 61.4044 62.6925 61.2075C62.4955 61.0106 62.2285 60.9 61.95 60.9ZM59.85 53.55C59.85 53.8285 59.7394 54.0955 59.5425 54.2924C59.3455 54.4894 59.0785 54.6 58.8 54.6H54.516C54.4115 53.8719 54.1973 53.1639 53.8807 52.5H59.85V53.55ZM59.85 49.35V50.4H56.7V49.35C56.7 49.0715 56.8106 48.8044 57.0075 48.6075C57.2044 48.4106 57.4715 48.3 57.75 48.3H59.7786C59.8241 48.6482 59.848 48.9988 59.85 49.35ZM3.15 49.35C3.1525 47.1229 4.0383 44.9878 5.61307 43.413C7.18783 41.8383 9.32295 40.9525 11.55 40.95C11.7347 40.9503 11.9162 40.902 12.0762 40.8098C12.2362 40.7177 12.3691 40.5849 12.4614 40.425L18.4464 29.9554C19.0885 28.8309 20.0163 27.896 21.1359 27.2453C22.2555 26.5946 23.5271 26.2512 24.822 26.25H37.863C39.2281 26.2441 40.5674 26.6216 41.7285 27.3394C42.8896 28.0572 43.8259 29.0866 44.4307 30.3103L49.4602 40.3693C49.5475 40.5439 49.6816 40.6907 49.8476 40.7932C50.0136 40.8958 50.2049 40.9501 50.4 40.95H51.45C53.1212 40.9593 54.7523 41.4627 56.1381 42.3969C57.5239 43.3311 58.6024 44.6543 59.2378 46.2H57.75C56.9146 46.2 56.1134 46.5319 55.5226 47.1226C54.9319 47.7133 54.6 48.5145 54.6 49.35V50.4H52.3845C51.0144 49.0541 49.1706 48.3 47.25 48.3C45.3294 48.3 43.4856 49.0541 42.1155 50.4H19.8345C18.4644 49.0541 16.6206 48.3 14.7 48.3C12.7794 48.3 10.9356 49.0541 9.5655 50.4H3.15V49.35ZM40.6193 52.5C40.3027 53.1639 40.0885 53.8719 39.984 54.6H21.966C21.8615 53.8719 21.6473 53.1639 21.3307 52.5H40.6193ZM7.434 54.6H3.15V52.5H8.06925C7.75269 53.1639 7.53851 53.8719 7.434 54.6ZM14.7 60.9C13.6616 60.9 12.6466 60.5921 11.7833 60.0152C10.9199 59.4383 10.247 58.6184 9.84963 57.6591C9.45227 56.6998 9.3483 55.6442 9.55088 54.6258C9.75345 53.6074 10.2535 52.6719 10.9877 51.9377C11.7219 51.2034 12.6574 50.7034 13.6758 50.5009C14.6942 50.2983 15.7498 50.4023 16.7091 50.7996C17.6684 51.197 18.4883 51.8699 19.0652 52.7332C19.6421 53.5966 19.95 54.6116 19.95 55.65C19.9483 57.0419 19.3947 58.3762 18.4105 59.3605C17.4263 60.3447 16.0919 60.8983 14.7 60.9ZM19.8345 60.9C20.9877 59.7726 21.737 58.2964 21.966 56.7H39.984C40.213 58.2964 40.9622 59.7726 42.1155 60.9H19.8345ZM47.25 60.9C46.2116 60.9 45.1966 60.5921 44.3333 60.0152C43.4699 59.4383 42.797 58.6184 42.3996 57.6591C42.0023 56.6998 41.8983 55.6442 42.1009 54.6258C42.3034 53.6074 42.8035 52.6719 43.5377 51.9377C44.2719 51.2034 45.2074 50.7034 46.2258 50.5009C47.2442 50.2983 48.2998 50.4023 49.2591 50.7996C50.2184 51.197 51.0383 51.8699 51.6152 52.7332C52.1921 53.5966 52.5 54.6116 52.5 55.65C52.4983 57.0419 51.9447 58.3762 50.9605 59.3605C49.9763 60.3447 48.6419 60.8983 47.25 60.9Z" fill="#FD3B3B"/>
</g>
<defs>
<clipPath id="clip0_76_7">
<rect width="63" height="63" fill="white"/>
</clipPath>
</defs>
</svg>
