<svg width="63" height="63" viewBox="0 0 63 63" fill="none" xmlns="http://www.w3.org/2000/svg">
<path d="M57.1333 17.8891H47.1798L46.9576 17.0715L50.3527 14.3427C50.7895 13.9916 50.9598 13.4204 50.7866 12.8873C50.6133 12.3543 50.1397 11.9923 49.5801 11.9651L45.2295 11.753L43.6836 7.68085C43.485 7.15777 42.9942 6.81976 42.4335 6.81976C41.8728 6.81976 41.3821 7.1579 41.1837 7.68085L39.6377 11.753L35.2872 11.965C34.7275 11.9922 34.254 12.3542 34.0806 12.8872C33.9075 13.4202 34.0778 13.9914 34.5145 14.3425L37.9096 17.0713L37.6874 17.8888H27.7339C24.9777 17.8888 22.7354 20.1311 22.7354 22.8872V23.7759H22.1981C22.1981 23.7759 22.1981 23.7759 22.198 23.7759C21.7596 23.7759 21.3339 23.8611 20.9394 24.0234C21.2323 23.4222 21.3988 22.8578 21.4604 22.4104C21.4666 22.3659 21.4697 22.321 21.4697 22.2759V18.473C21.4697 14.6882 18.3902 11.6091 14.6049 11.6091C14.0612 11.6091 13.6205 12.0499 13.6205 12.5935V17.4962C13.6205 20.438 11.3098 22.0669 8.8635 23.7915C8.49645 24.0503 8.11993 24.3163 7.75214 24.5863H1.85254C1.30892 24.5863 0.868164 25.027 0.868164 25.5706V41.7204C0.868164 42.264 1.30892 42.7048 1.85254 42.7048H7.69136C9.8117 44.614 11.9444 45.2339 14.4218 45.2339C16.3241 45.2339 18.4299 44.8687 20.8884 44.4425L21.4374 44.3475C21.6839 44.4053 21.9385 44.4359 22.1977 44.4359H22.198H22.1981H22.944C23.5635 46.5207 25.4876 48.0034 27.7337 48.0034H30.1459V55.1956C30.1459 55.5974 30.3901 55.9588 30.7628 56.1088C30.882 56.1568 31.0065 56.18 31.1301 56.18C31.393 56.18 31.6508 56.0747 31.8402 55.8776L39.4044 48.0034H57.1333C59.8894 48.0034 62.1317 45.7611 62.1317 43.005V22.8875C62.1317 20.1313 59.8896 17.8891 57.1333 17.8891ZM37.0447 13.8507L40.1463 13.6994C40.6776 13.6736 41.1429 13.3355 41.3313 12.8385L42.4335 9.93531L43.536 12.8388C43.7248 13.3357 44.1899 13.6735 44.7207 13.6994L47.8225 13.8507L45.402 15.7962C44.9876 16.1294 44.8099 16.6761 44.9493 17.189L45.764 20.1857L43.1656 18.4847C42.7211 18.1937 42.1463 18.1937 41.7013 18.4849L39.1031 20.1857L39.9178 17.189C40.0574 16.6761 39.8796 16.1292 39.4651 15.7962L37.0447 13.8507ZM22.1977 25.7447C22.1978 25.7447 22.1978 25.7447 22.1977 25.7447H28.0185C28.764 25.7447 29.3704 26.3512 29.3704 27.0967C29.3704 27.8422 28.7639 28.4487 28.0185 28.4487H22.198C21.4524 28.4487 20.8459 27.8422 20.8459 27.0967C20.8459 26.7381 20.9872 26.3992 21.2439 26.1427C21.5004 25.8861 21.8392 25.7447 22.1977 25.7447ZM22.1978 37.7944C21.4524 37.7942 20.8459 37.1877 20.8459 36.4422C20.8459 35.6967 21.4526 35.0903 22.198 35.0903H27.3632C28.1088 35.0903 28.7151 35.6968 28.7151 36.4422C28.7151 37.1877 28.1087 37.7944 27.3632 37.7944H22.1978ZM21.2137 33.1215C20.4682 33.1215 19.8617 32.515 19.8617 31.7696C19.8617 31.0241 20.4683 30.4176 21.2137 30.4176H29.0027C29.7483 30.4176 30.3546 31.0242 30.3547 31.7695C30.3546 32.515 29.7481 33.1215 29.0027 33.1215H21.2137ZM7.09852 40.7362H2.83691V26.5551H7.09421C7.10135 35.249 7.10123 39.1516 7.09852 40.7362ZM9.06247 26.0669C9.3648 25.8471 9.67475 25.6282 9.99763 25.4006C12.6185 23.5529 15.589 21.4588 15.589 17.4962V13.6772C17.8184 14.134 19.5007 16.1108 19.5007 18.473V22.2019C19.4023 22.786 18.9989 23.7323 18.158 24.5738C17.8232 24.9089 17.7746 25.435 18.0422 25.8258C18.7454 26.8525 18.9835 27.8058 18.7703 28.7401C18.3588 30.5421 16.3369 31.8725 15.4866 32.3607C15.0152 32.6316 14.8526 33.2331 15.1233 33.7045C15.3053 34.0215 15.6369 34.1988 15.9778 34.1988C16.1441 34.1988 16.3126 34.1566 16.4672 34.0679C16.933 33.8004 17.5192 33.4243 18.109 32.9437C18.3672 33.6239 18.8411 34.1988 19.4489 34.5815C19.0882 35.1125 18.8772 35.7533 18.8772 36.4423C18.8772 37.3525 19.2452 38.1784 19.8404 38.7788C19.2452 39.3793 18.8772 40.2051 18.8772 41.1153C18.8772 41.6851 19.0216 42.2333 19.2919 42.7195C14.5203 43.5289 11.8436 43.762 9.06579 41.2938L9.06247 26.0669ZM25.9697 39.7632C26.7153 39.7632 27.3216 40.3697 27.3216 41.1153C27.3216 41.4738 27.1804 41.8126 26.9237 42.0692C26.667 42.3259 26.3283 42.4672 25.9697 42.4672H25.9696H22.198H22.1978C21.8394 42.4672 21.5005 42.3259 21.244 42.0694C20.9873 41.8127 20.8461 41.4739 20.8461 41.1153C20.8461 40.3697 21.4527 39.7632 22.1981 39.7632H25.9697ZM60.163 43.005C60.163 44.6756 58.8038 46.0347 57.1333 46.0347H38.985C38.717 46.0347 38.4607 46.1439 38.275 46.3371L32.1147 52.7501V47.0191C32.1147 46.4754 31.6739 46.0347 31.1303 46.0347H27.7337C26.585 46.0347 25.576 45.3946 25.0627 44.4359H25.9695H25.9699C26.8542 44.4359 27.6873 44.0899 28.3157 43.4614C28.9441 42.8329 29.2904 41.9997 29.2904 41.1153C29.2904 40.4978 29.121 39.919 28.8263 39.4232C29.9257 38.8813 30.684 37.7487 30.684 36.4423C30.684 35.8612 30.534 35.3145 30.2706 34.8389C31.4746 34.3397 32.3236 33.152 32.3237 31.7696C32.3236 30.5865 31.7017 29.546 30.7677 28.9577C31.1283 28.4267 31.3394 27.7858 31.3394 27.0968C31.3394 25.2657 29.8498 23.7761 28.0187 23.7761H24.7041V22.8875C24.7041 21.2169 26.0631 19.8578 27.7337 19.8578H37.1521L36.767 21.2744C36.6198 21.8152 36.8175 22.3774 37.2708 22.707C37.7241 23.0365 38.3201 23.0511 38.7894 22.7442L42.4336 20.3586L46.078 22.7442C46.3029 22.8915 46.5571 22.9647 46.8107 22.9647C47.0857 22.9647 47.3602 22.8786 47.5961 22.7072C48.0495 22.3778 48.2474 21.8156 48.1004 21.2748L47.7152 19.8579H57.1334C58.8039 19.8579 60.1631 21.217 60.1631 22.8876V43.005H60.163ZM57.6723 40.6067C57.6723 41.1503 57.2315 41.5911 56.6879 41.5911H34.5787C34.0351 41.5911 33.5943 41.1503 33.5943 40.6067C33.5943 40.0631 34.0351 39.6223 34.5787 39.6223H56.6879C57.2315 39.6223 57.6723 40.063 57.6723 40.6067ZM33.5943 25.841C33.5943 25.2973 34.0351 24.8566 34.5787 24.8566H48.8548C49.3985 24.8566 49.8392 25.2973 49.8392 25.841C49.8392 26.3846 49.3985 26.8253 48.8548 26.8253H34.5787C34.0352 26.8253 33.5943 26.3846 33.5943 25.841ZM33.5943 29.5324C33.5943 28.9888 34.0351 28.548 34.5787 28.548H46.3993C46.9429 28.548 47.3837 28.9888 47.3837 29.5324C47.3837 30.076 46.9429 30.5167 46.3993 30.5167H34.5787C34.0352 30.5167 33.5943 30.076 33.5943 29.5324ZM33.5943 33.2238C33.5943 32.6802 34.0351 32.2394 34.5787 32.2394H54.1705C54.7141 32.2394 55.1548 32.6802 55.1548 33.2238C55.1548 33.7674 54.7141 34.2082 54.1705 34.2082H34.5787C34.0352 34.2082 33.5943 33.7674 33.5943 33.2238ZM33.5943 36.9153C33.5943 36.3717 34.0351 35.9309 34.5787 35.9309H51.5437C52.0873 35.9309 52.528 36.3717 52.528 36.9153C52.528 37.4589 52.0873 37.8997 51.5437 37.8997H34.5787C34.0352 37.8997 33.5943 37.4589 33.5943 36.9153Z" fill="#FD3B3B"/>
</svg>
