<svg width="59" height="60" viewBox="0 0 59 60" fill="none" xmlns="http://www.w3.org/2000/svg">
<path d="M29.5 4.90625C29.2389 4.90625 28.9885 4.80254 28.8039 4.61793C28.6193 4.43333 28.5156 4.18295 28.5156 3.92188V1.95312C28.5156 1.69205 28.6193 1.44167 28.8039 1.25707C28.9885 1.07246 29.2389 0.96875 29.5 0.96875C29.7611 0.96875 30.0115 1.07246 30.1961 1.25707C30.3807 1.44167 30.4844 1.69205 30.4844 1.95312V3.92188C30.4844 4.18295 30.3807 4.43333 30.1961 4.61793C30.0115 4.80254 29.7611 4.90625 29.5 4.90625Z" fill="#FD3B3B"/>
<path d="M21.1327 7.14765C20.9598 7.14782 20.7898 7.10241 20.64 7.01601C20.4902 6.9296 20.3658 6.80525 20.2793 6.65546L19.2949 4.95052C19.1664 4.72455 19.1325 4.45694 19.2007 4.20608C19.2688 3.95522 19.4333 3.74148 19.6584 3.6115C19.8836 3.48153 20.1509 3.44587 20.4022 3.51232C20.6536 3.57876 20.8684 3.7419 20.9998 3.96615L21.9842 5.67109C22.0706 5.82066 22.1161 5.99031 22.1161 6.16302C22.1161 6.33573 22.0707 6.50541 21.9845 6.65503C21.8982 6.80464 21.7741 6.92892 21.6246 7.01539C21.4751 7.10186 21.3054 7.14747 21.1327 7.14765Z" fill="#FD3B3B"/>
<path d="M37.8672 7.14765C37.6944 7.14747 37.5248 7.10186 37.3753 7.01539C37.2258 6.92892 37.1017 6.80464 37.0154 6.65503C36.9291 6.50541 36.8837 6.33573 36.8838 6.16302C36.8838 5.99031 36.9293 5.82066 37.0157 5.67109L38 3.96615C38.1315 3.7419 38.3463 3.57876 38.5976 3.51232C38.8489 3.44587 39.1163 3.48153 39.3414 3.6115C39.5666 3.74148 39.7311 3.95522 39.7992 4.20608C39.8673 4.45694 39.8335 4.72455 39.705 4.95052L38.7206 6.65546C38.6341 6.80525 38.5097 6.9296 38.3599 7.01601C38.2101 7.10241 38.0401 7.14782 37.8672 7.14765Z" fill="#FD3B3B"/>
<path d="M56.7918 22.0019C56.8147 21.8267 56.8262 21.6501 56.8262 21.4733C56.8227 20.5712 56.5104 19.6976 55.9415 18.9976C55.3726 18.2975 54.5812 17.8133 53.6989 17.6254C52.6901 17.4377 51.6477 17.6414 50.7837 18.1949C49.9197 18.7484 49.299 19.6102 49.0477 20.6051L45.626 32.6893C45.249 32.771 44.8861 32.908 44.5491 33.0958L35.8473 38.1969C34.5165 38.9808 33.4129 40.0978 32.6452 41.438C31.8774 42.7781 31.472 44.2951 31.4688 45.8395V58.0625C31.4688 58.3236 31.5725 58.574 31.7571 58.7586C31.9417 58.9432 32.1921 59.0469 32.4531 59.0469C32.7142 59.0469 32.9646 58.9432 33.1492 58.7586C33.3338 58.574 33.4375 58.3236 33.4375 58.0625V45.8395C33.44 44.6383 33.7554 43.4585 34.3526 42.4163C34.9499 41.374 35.8083 40.5054 36.8434 39.8959L45.5394 34.7978C45.7634 34.6665 46.0111 34.5808 46.2684 34.5456C46.5256 34.5104 46.7873 34.5265 47.0383 34.5929C47.2893 34.6592 47.5247 34.7746 47.731 34.9323C47.9372 35.09 48.1102 35.287 48.2401 35.5118C48.3699 35.7367 48.454 35.985 48.4874 36.2425C48.5209 36.4999 48.5031 36.7615 48.4351 37.012C48.367 37.2626 48.2501 37.4973 48.091 37.7025C47.932 37.9077 47.7339 38.0794 47.5082 38.2077L41.8667 41.465C41.7538 41.5291 41.6548 41.615 41.5753 41.7176C41.4957 41.8202 41.4373 41.9375 41.4032 42.0628C41.3692 42.1881 41.3603 42.3189 41.3771 42.4476C41.3938 42.5763 41.4358 42.7005 41.5007 42.8129C41.5657 42.9253 41.6522 43.0238 41.7553 43.1027C41.8584 43.1815 41.9761 43.2392 42.1016 43.2724C42.2271 43.3056 42.358 43.3136 42.4866 43.296C42.6152 43.2784 42.7391 43.2356 42.8511 43.1699L48.4925 39.9126C49.2985 39.4496 49.9136 38.7151 50.2279 37.8403C50.5422 36.9655 50.5353 36.0075 50.2083 35.1374L52.9104 25.0692C53.0329 24.5597 53.3426 24.1149 53.7779 23.8232C54.2132 23.5314 54.7423 23.414 55.2601 23.4942C55.7004 23.5875 56.0957 23.8283 56.3805 24.1769C56.6653 24.5254 56.8226 24.9607 56.8262 25.4108C56.8276 25.5839 56.8057 25.7564 56.7613 25.9237L52.4802 41.902C52.3304 42.4597 52.0207 42.9613 51.5894 43.3451L44.934 49.2612C44.4139 49.7234 43.9977 50.2905 43.7128 50.9253C43.4279 51.5601 43.2808 52.248 43.2812 52.9438V58.0625C43.2812 58.3236 43.385 58.574 43.5696 58.7586C43.7542 58.9432 44.0046 59.0469 44.2656 59.0469C44.5267 59.0469 44.7771 58.9432 44.9617 58.7586C45.1463 58.574 45.25 58.3236 45.25 58.0625V52.9438C45.25 52.5268 45.3384 52.1145 45.5093 51.7341C45.6801 51.3537 45.9296 51.0138 46.2413 50.7368L52.8986 44.8197C53.6178 44.1791 54.1332 43.3416 54.3811 42.411L58.6621 26.4346C58.7518 26.1004 58.7965 25.7558 58.795 25.4098C58.7906 24.7157 58.603 24.0351 58.2513 23.4367C57.8995 22.8384 57.3961 22.3434 56.7918 22.0019ZM51.0096 24.5613L48.6815 33.2317C48.3648 33.0214 48.0193 32.8579 47.6558 32.7464L50.9456 21.1307C51.0702 20.622 51.3806 20.1783 51.8158 19.8869C52.251 19.5954 52.7794 19.4773 53.2973 19.5557C53.7372 19.6491 54.132 19.8902 54.4159 20.2391C54.6997 20.588 54.8556 21.0235 54.8575 21.4733V21.4871C53.9689 21.5097 53.112 21.8222 52.4174 22.3768C51.7228 22.9314 51.2284 23.6978 51.0096 24.5593V24.5613Z" fill="#FD3B3B"/>
<path d="M23.1527 38.1968L14.4449 33.0928C14.1099 32.9057 13.749 32.7694 13.3739 32.6883L9.95617 20.6169C9.70742 19.6186 9.08684 18.753 8.22125 18.197C7.35566 17.641 6.3104 17.4365 5.29909 17.6254C4.41726 17.8138 3.62642 18.2983 3.0579 18.9982C2.48938 19.6982 2.17737 20.5715 2.1737 21.4733C2.17368 21.65 2.18519 21.8266 2.20816 22.0019C1.44945 22.4284 0.854008 23.095 0.51545 23.8969C0.176892 24.6987 0.114416 25.5904 0.337844 26.4316L4.61889 42.4109C4.86788 43.34 5.38361 44.1757 6.10234 44.8148L12.7587 50.7309C13.0711 51.0086 13.321 51.3494 13.4919 51.7309C13.6628 52.1124 13.7507 52.5258 13.75 52.9438V58.0625C13.75 58.3236 13.8537 58.574 14.0383 58.7586C14.2229 58.9432 14.4733 59.0469 14.7343 59.0469C14.9954 59.0469 15.2458 58.9432 15.4304 58.7586C15.615 58.574 15.7187 58.3236 15.7187 58.0625V52.9438C15.7186 52.2486 15.5713 51.5614 15.2864 50.9274C15.0015 50.2934 14.5856 49.7268 14.0659 49.2651L7.41156 43.3491C6.97954 42.9656 6.66946 42.4639 6.51972 41.906L2.23769 25.9217C2.17025 25.6632 2.15595 25.3937 2.19564 25.1295C2.23533 24.8653 2.32819 24.6119 2.46861 24.3846C2.60903 24.1573 2.79408 23.9609 3.01258 23.8072C3.23108 23.6535 3.47849 23.5456 3.73984 23.4903C4.25772 23.4098 4.78692 23.5271 5.22226 23.8189C5.65761 24.1107 5.96721 24.5557 6.08955 25.0653L8.79166 35.1335C8.46469 36.0036 8.45775 36.9616 8.77206 37.8363C9.08636 38.7111 9.70145 39.4456 10.5074 39.9087L16.1489 43.166C16.2609 43.2316 16.3847 43.2745 16.5134 43.2921C16.642 43.3096 16.7728 43.3016 16.8983 43.2684C17.0238 43.2352 17.1415 43.1776 17.2447 43.0987C17.3478 43.0199 17.4343 42.9214 17.4992 42.8089C17.5641 42.6965 17.6061 42.5724 17.6229 42.4436C17.6396 42.3149 17.6307 42.1841 17.5967 42.0588C17.5627 41.9336 17.5042 41.8162 17.4247 41.7136C17.3452 41.611 17.2461 41.5252 17.1332 41.461L11.4918 38.2077C11.1071 37.9872 10.8083 37.643 10.6442 37.2311C10.4801 36.8192 10.4603 36.3638 10.588 35.9392C10.7158 35.5146 10.9835 35.1457 11.3476 34.8927C11.7117 34.6397 12.1508 34.5174 12.5933 34.5458H12.6012C12.9012 34.5611 13.1935 34.6464 13.4546 34.7948L22.1565 39.8959C23.1916 40.5054 24.0501 41.374 24.6473 42.4162C25.2445 43.4585 25.5599 44.6383 25.5625 45.8395V58.0625C25.5625 58.3236 25.6662 58.574 25.8508 58.7586C26.0354 58.9432 26.2858 59.0469 26.5468 59.0469C26.8079 59.0469 27.0583 58.9432 27.2429 58.7586C27.4275 58.574 27.5312 58.3236 27.5312 58.0625V45.8395C27.528 44.2951 27.1225 42.7781 26.3548 41.4379C25.587 40.0978 24.4834 38.9808 23.1527 38.1968ZM10.3184 33.2307L7.99038 24.5593C7.77242 23.6976 7.27859 22.9308 6.5842 22.3759C5.88981 21.8211 5.03299 21.5086 4.14442 21.4861V21.4733C4.14556 21.0233 4.30082 20.5872 4.58435 20.2378C4.86789 19.8884 5.26257 19.6466 5.70269 19.5528C6.22342 19.4728 6.75517 19.5919 7.19206 19.8863C7.62896 20.1807 7.93893 20.6289 8.06027 21.1416L11.3441 32.7444C10.9804 32.8558 10.6349 33.0197 10.3184 33.2307Z" fill="#FD3B3B"/>
<path d="M36.9891 33.9246C37.2995 33.9219 37.6048 33.8463 37.8806 33.704C38.1564 33.5616 38.3949 33.3564 38.5769 33.105C38.7589 32.8536 38.8792 32.563 38.9283 32.2565C38.9774 31.95 38.9538 31.6363 38.8594 31.3407L36.4408 23.8968L42.7723 19.2958C43.1084 19.0516 43.3587 18.7074 43.4872 18.3123C43.6158 17.9172 43.616 17.4916 43.488 17.0964C43.36 16.7012 43.1102 16.3566 42.7744 16.1119C42.4386 15.8673 42.0341 15.7351 41.6186 15.7344H33.7909L31.3703 8.29053C31.2408 7.89665 30.9903 7.55369 30.6545 7.31056C30.3186 7.06742 29.9146 6.93652 29.5 6.93652C29.0854 6.93652 28.6813 7.06742 28.3455 7.31056C28.0097 7.55369 27.7591 7.89665 27.6297 8.29053L25.2091 15.7344H17.3813C16.9656 15.7345 16.5607 15.8662 16.2244 16.1106C15.8881 16.3551 15.6379 16.6996 15.5095 17.095C15.3811 17.4904 15.3811 17.9163 15.5096 18.3116C15.6381 18.707 15.8884 19.0515 16.2247 19.2958L22.5562 23.8968L20.1376 31.3407C20.0091 31.7361 20.009 32.1621 20.1375 32.5576C20.266 32.953 20.5164 33.2977 20.8528 33.5421C21.1892 33.7865 21.5944 33.9181 22.0102 33.918C22.426 33.9179 22.8312 33.7862 23.1675 33.5417L29.5 28.9417L35.8325 33.5417C36.1675 33.7891 36.5727 33.9233 36.9891 33.9246ZM29.5 26.971C29.084 26.9712 28.6787 27.1032 28.3424 27.348L22.0109 31.949L24.4295 24.5052C24.5579 24.1097 24.5578 23.6838 24.4293 23.2884C24.3007 22.893 24.0503 22.5484 23.7138 22.3041L17.3813 17.7031H25.2091C25.6245 17.7027 26.0291 17.5709 26.3651 17.3265C26.701 17.0822 26.9511 16.7378 27.0794 16.3427L29.5 8.88608V8.89887L31.9186 16.3427C32.0471 16.7381 32.2974 17.0827 32.6337 17.3271C32.9701 17.5715 33.3751 17.7031 33.7909 17.7031H41.6186L35.2871 22.3031C34.9503 22.5474 34.6996 22.892 34.5708 23.2876C34.4421 23.6832 34.442 24.1095 34.5705 24.5052L36.9891 31.949L30.6576 27.35C30.3215 27.1045 29.9162 26.9718 29.5 26.971Z" fill="#FD3B3B"/>
<path d="M12.8109 12.1571L14.5148 13.1415C14.6268 13.2072 14.7507 13.25 14.8793 13.2676C15.0079 13.2852 15.1388 13.2772 15.2643 13.244C15.3898 13.2108 15.5075 13.1531 15.6106 13.0743C15.7137 12.9954 15.8002 12.8969 15.8652 12.7845C15.9301 12.6721 15.9721 12.5479 15.9888 12.4192C16.0056 12.2904 15.9967 12.1597 15.9627 12.0344C15.9286 11.9091 15.8702 11.7918 15.7906 11.6892C15.7111 11.5866 15.6121 11.5007 15.4992 11.4366L13.7953 10.4522C13.5693 10.3237 13.3017 10.2898 13.0508 10.3579C12.7999 10.426 12.5862 10.5906 12.4562 10.8157C12.3263 11.0408 12.2906 11.3082 12.357 11.5595C12.4235 11.8108 12.5866 12.0257 12.8109 12.1571Z" fill="#FD3B3B"/>
<path d="M43.9939 13.2734C44.1666 13.2734 44.3364 13.2279 44.486 13.1415L46.19 12.1571C46.4142 12.0257 46.5774 11.8108 46.6438 11.5595C46.7103 11.3082 46.6746 11.0408 46.5446 10.8157C46.4147 10.5906 46.2009 10.426 45.9501 10.3579C45.6992 10.2898 45.4316 10.3237 45.2056 10.4522L43.5017 11.4366C43.314 11.5449 43.1674 11.7122 43.0844 11.9124C43.0015 12.1126 42.987 12.3345 43.0431 12.5438C43.0991 12.7531 43.2227 12.9381 43.3946 13.07C43.5665 13.2019 43.7772 13.2734 43.9939 13.2734Z" fill="#FD3B3B"/>
</svg>
