<svg width="57" height="61" viewBox="0 0 57 61" fill="none" xmlns="http://www.w3.org/2000/svg">
<path d="M42.2813 41.3281H47.0762C48.5183 41.3279 49.9253 40.8834 51.1058 40.0552C52.2864 39.227 53.1832 38.0552 53.6742 36.6993C54.1652 35.3434 54.2266 33.8691 53.8501 32.477C53.4736 31.085 52.6774 29.8426 51.5698 28.9191L43.5708 22.2529C42.3315 21.2223 40.7707 20.6575 39.1588 20.6562H17.8412C16.2293 20.6575 14.6686 21.2223 13.4293 22.2529L5.43022 28.9191C4.32266 29.8426 3.52646 31.085 3.14994 32.477C2.77342 33.8691 2.83485 35.3434 3.32587 36.6993C3.81689 38.0552 4.71367 39.227 5.89422 40.0552C7.07478 40.8834 8.48179 41.3279 9.92389 41.3281H14.7188C14.7201 43.2636 15.1345 45.1766 15.9345 46.9391C15.662 47.6807 15.6293 48.4892 15.841 49.2504L6.88316 45.1505C6.24335 44.8585 5.54049 44.7318 4.839 44.7819C4.13751 44.8321 3.45985 45.0576 2.86813 45.4377C2.27642 45.8178 1.7896 46.3404 1.45229 46.9575C1.11498 47.5746 0.937986 48.2665 0.937531 48.9698V49.1834C0.934526 49.9646 1.1505 50.731 1.56094 51.3956C1.97139 52.0603 2.55988 52.5966 3.25967 52.9437L14.7375 58.6827C16.5156 59.5677 18.4744 60.0292 20.4606 60.0312H56.0625V58.0625H42.2813V46.25H56.0625V44.2812H41.9604C42.1737 43.3114 42.2813 42.3212 42.2813 41.3281ZM40.3125 58.0625H20.4606C18.7797 58.0606 17.122 57.6694 15.6175 56.9196L4.14069 51.1807C3.76879 50.9965 3.45599 50.7117 3.23779 50.3587C3.01959 50.0056 2.90475 49.5985 2.90628 49.1834V48.9698C2.9053 48.5953 2.99869 48.2265 3.17782 47.8976C3.35696 47.5687 3.61607 47.2902 3.93124 47.0878C4.24641 46.8855 4.60747 46.7657 4.98111 46.7397C5.35475 46.7138 5.72892 46.7823 6.06908 46.9391L17.2624 52.0657C17.3907 52.1251 17.5305 52.156 17.6719 52.1562H27.5157C27.7767 52.1562 28.0271 52.0525 28.2117 51.8679C28.3963 51.6833 28.5 51.4329 28.5 51.1719C28.5 50.9108 28.3963 50.6604 28.2117 50.4758C28.0271 50.2912 27.7767 50.1875 27.5157 50.1875H19.6407C19.1185 50.1875 18.6178 49.9801 18.2485 49.6109C17.8793 49.2417 17.6719 48.7409 17.6719 48.2188C17.6719 47.6966 17.8793 47.1958 18.2485 46.8266C18.6178 46.4574 19.1185 46.25 19.6407 46.25H27.1879C27.3531 46.2502 27.5156 46.2085 27.6604 46.1289L27.9094 45.9921C29.8052 44.9487 31.9294 44.3898 34.0932 44.3651C36.257 44.3404 38.3934 44.8506 40.3125 45.8503V58.0625ZM16.6875 41.3281H18.6563C18.6589 42.3479 18.8186 43.3613 19.1298 44.3324C18.4682 44.4171 17.8394 44.6703 17.3037 45.0678C16.896 43.8631 16.6878 42.5999 16.6875 41.3281ZM31.3065 41.4394L34.7065 38.8918C35.0351 39.6743 35.6071 40.3301 36.3376 40.7621C36.3504 40.9511 36.375 41.1559 36.375 41.3301C36.3731 41.7333 36.3401 42.1358 36.2766 42.534C34.6607 42.3149 33.0199 42.3605 31.4187 42.6688C31.4372 42.5508 31.4487 42.4319 31.4532 42.3125C31.449 42.0157 31.3996 41.7212 31.3065 41.4394ZM28.5 39.3594C27.9186 39.3582 27.35 39.5295 26.866 39.8516L22.5131 36.5913C22.4944 36.5017 22.457 36.421 22.4323 36.3334C23.1661 35.4323 24.0914 34.7059 25.1409 34.207C26.1905 33.7082 27.3379 33.4493 28.5 33.4493C29.6621 33.4493 30.8096 33.7082 31.8592 34.207C32.9087 34.7059 33.834 35.4323 34.5677 36.3334C34.5431 36.421 34.5057 36.5017 34.487 36.5913L30.1341 39.8516C29.6501 39.5295 29.0814 39.3582 28.5 39.3594ZM29.4844 42.3125C29.4844 42.5072 29.4267 42.6975 29.3185 42.8594C29.2103 43.0213 29.0566 43.1474 28.8767 43.2219C28.6969 43.2964 28.4989 43.3159 28.308 43.278C28.117 43.24 27.9416 43.1462 27.804 43.0086C27.6663 42.8709 27.5726 42.6955 27.5346 42.5045C27.4966 42.3136 27.5161 42.1157 27.5906 41.9358C27.6651 41.7559 27.7913 41.6022 27.9531 41.494C28.115 41.3859 28.3053 41.3281 28.5 41.3281C28.7611 41.3281 29.0115 41.4318 29.1961 41.6164C29.3807 41.801 29.4844 42.0514 29.4844 42.3125ZM35.6259 34.5537C34.7094 33.5842 33.6047 32.812 32.3795 32.2842C31.1542 31.7564 29.8341 31.4842 28.5 31.4842C27.1659 31.4842 25.8459 31.7564 24.6206 32.2842C23.3953 32.812 22.2907 33.5842 21.3741 34.5537C20.8785 34.0804 20.2677 33.7451 19.6023 33.5811C20.7071 32.305 22.0735 31.2815 23.6087 30.58C25.1439 29.8785 26.8121 29.5154 28.5 29.5154C30.1879 29.5154 31.8561 29.8785 33.3914 30.58C34.9266 31.2815 36.293 32.305 37.3978 33.5811C36.7324 33.7451 36.1215 34.0804 35.6259 34.5537ZM22.2985 38.8918L25.6985 41.4394C25.5368 41.9219 25.508 42.4391 25.6152 42.9365C25.7225 43.434 25.9617 43.8934 26.3078 44.2665L21.2088 44.2812C20.8263 43.3435 20.6281 42.3409 20.625 41.3281C20.625 41.1509 20.6496 40.9491 20.6624 40.7601C21.3945 40.3295 21.9682 39.6743 22.2985 38.8918ZM40.094 43.5764C39.4793 43.3178 38.8482 43.0998 38.205 42.9238C38.2943 42.3965 38.3407 41.8629 38.3438 41.3281H40.3125C40.31 42.083 40.2351 42.8358 40.0891 43.5764H40.094ZM38.3438 39.3594C37.8216 39.3594 37.3209 39.152 36.9517 38.7827C36.5825 38.4135 36.375 37.9128 36.375 37.3906C36.375 36.8685 36.5825 36.3677 36.9517 35.9985C37.3209 35.6293 37.8216 35.4219 38.3438 35.4219H47.2032C47.4057 35.4222 47.6034 35.3601 47.7694 35.2439C47.9353 35.1278 48.0614 34.9633 48.1304 34.7729C48.1994 34.5824 48.208 34.3753 48.1549 34.1799C48.1019 33.9844 47.9899 33.81 47.8341 33.6805L41.9279 28.7586C41.7841 28.6386 41.6091 28.562 41.4233 28.538C41.2376 28.5139 41.0488 28.5433 40.8792 28.6228C40.7096 28.7023 40.5662 28.8285 40.4658 28.9867C40.3654 29.1448 40.3123 29.3283 40.3125 29.5156V33.4531H39.776C38.5137 31.6308 36.8284 30.1415 34.8646 29.113C32.9008 28.0844 30.7169 27.5471 28.5 27.5471C26.2831 27.5471 24.0993 28.0844 22.1355 29.113C20.1717 30.1415 18.4864 31.6308 17.224 33.4531H16.6875V29.5156C16.6878 29.3283 16.6346 29.1448 16.5343 28.9867C16.4339 28.8285 16.2905 28.7023 16.1209 28.6228C15.9513 28.5433 15.7625 28.5139 15.5767 28.538C15.391 28.562 15.2159 28.6386 15.0722 28.7586L9.16592 33.6805C9.01016 33.81 8.89814 33.9844 8.84512 34.1799C8.79211 34.3753 8.80069 34.5824 8.86969 34.7729C8.93869 34.9633 9.06476 35.1278 9.2307 35.2439C9.39663 35.3601 9.59436 35.4222 9.79691 35.4219H18.6563C19.1784 35.4219 19.6792 35.6293 20.0484 35.9985C20.4176 36.3677 20.625 36.8685 20.625 37.3906C20.625 37.9128 20.4176 38.4135 20.0484 38.7827C19.6792 39.152 19.1784 39.3594 18.6563 39.3594H9.92389C8.88639 39.3592 7.87413 39.0395 7.02483 38.4436C6.17552 37.8477 5.53041 37.0046 5.17726 36.0291C4.82411 35.0535 4.78007 33.9929 5.05114 32.9914C5.3222 31.99 5.8952 31.0963 6.69219 30.4321L14.6912 23.7659C15.5755 23.0289 16.6901 22.6252 17.8412 22.625H39.1588C40.3099 22.6252 41.4246 23.0289 42.3088 23.7659L50.3079 30.4321C51.1049 31.0963 51.6779 31.99 51.9489 32.9914C52.22 33.9929 52.1759 35.0535 51.8228 36.0291C51.4697 37.0046 50.8245 37.8477 49.9752 38.4436C49.1259 39.0395 48.1137 39.3592 47.0762 39.3594H38.3438ZM42.2813 33.4531V31.6173L44.4843 33.4531H42.2813ZM14.7188 31.6173V33.4531H12.5157L14.7188 31.6173Z" fill="#FD3B3B"/>
<path d="M46.2188 54.125H44.25V56.0938H46.2188V54.125Z" fill="#FD3B3B"/>
<path d="M37.3594 9.82813C37.3594 8.07591 36.8398 6.36304 35.8663 4.90612C34.8928 3.44921 33.5092 2.31368 31.8903 1.64313C30.2715 0.972589 28.4902 0.797143 26.7716 1.13898C25.0531 1.48083 23.4745 2.3246 22.2355 3.5636C20.9965 4.80261 20.1527 6.3812 19.8109 8.09975C19.469 9.8183 19.6445 11.5996 20.315 13.2185C20.9856 14.8373 22.1211 16.2209 23.578 17.1944C25.0349 18.1679 26.7478 18.6875 28.5 18.6875C30.8489 18.6849 33.1008 17.7507 34.7617 16.0898C36.4225 14.4289 37.3568 12.177 37.3594 9.82813ZM21.6094 9.82813C21.6094 8.46529 22.0135 7.13306 22.7707 5.9999C23.5278 4.86675 24.604 3.98356 25.8631 3.46202C27.1222 2.94049 28.5076 2.80403 29.8443 3.06991C31.1809 3.33578 32.4087 3.99205 33.3724 4.95572C34.3361 5.91939 34.9924 7.14718 35.2582 8.48384C35.5241 9.82049 35.3876 11.206 34.8661 12.4651C34.3446 13.7242 33.4614 14.8003 32.3282 15.5575C31.1951 16.3146 29.8628 16.7188 28.5 16.7188C26.6732 16.7164 24.9219 15.9897 23.6302 14.6979C22.3385 13.4062 21.6117 11.6549 21.6094 9.82813Z" fill="#FD3B3B"/>
</svg>
