<svg width="46" height="46" viewBox="0 0 46 46" fill="none" xmlns="http://www.w3.org/2000/svg">
<g clip-path="url(#clip0_64_381)">
<path d="M45.543 19.1535C45.3502 17.3932 43.9262 16.0258 42.1574 15.9022C40.6067 15.793 39.0548 15.7061 37.5453 15.6441C34.8555 15.5311 32.1316 15.4852 29.4359 15.5054C29.6148 11.6686 29.4969 7.81532 29.0786 4.00012C28.8922 2.29456 27.5136 0.969513 25.8008 0.849471C19.9432 0.438848 14.006 0.355286 8.15446 0.6013C6.69266 0.66204 5.20013 0.745512 3.71829 0.849471C2.00554 0.969513 0.626314 2.29438 0.438703 4.00004C-0.146053 9.33957 -0.146412 14.7563 0.437715 20.1C0.625685 21.8088 2.00536 23.136 3.71785 23.2558L4.0627 23.2803C4.55302 23.3131 4.93705 23.7234 4.93705 24.2144V27.4184C4.93705 28.1756 5.35827 28.8545 6.03656 29.1904C6.31681 29.3292 6.617 29.3975 6.91531 29.3975C7.33824 29.3975 7.75731 29.2601 8.1098 28.9915C8.77911 28.4821 9.41607 27.9632 10.003 27.449C10.2829 27.2038 10.3111 26.778 10.0658 26.4981C9.82058 26.2181 9.39477 26.19 9.11489 26.4352C8.55116 26.9291 7.93828 27.4283 7.29323 27.9192C7.09915 28.0671 6.85304 28.0907 6.63462 27.9826C6.41556 27.874 6.28473 27.6631 6.28473 27.4184V24.2144C6.28473 23.0165 5.34821 22.0154 4.15515 21.9356L3.81237 21.9113C2.74987 21.837 1.89394 21.0132 1.7775 19.9531C1.20397 14.707 1.20433 9.38899 1.77839 4.14703C1.89466 3.08975 2.75014 2.26832 3.81264 2.19383C5.28181 2.09077 6.76131 2.00802 8.2108 1.94782C14.0121 1.70405 19.8988 1.78672 25.7066 2.19383C26.7685 2.26832 27.6233 3.08957 27.7389 4.14676C28.314 9.39339 28.314 14.7135 27.7388 19.9594C27.7152 20.1758 27.6601 20.3855 27.5746 20.5841C27.2488 21.345 26.5324 21.8535 25.7046 21.9113C21.8241 22.1844 17.8732 22.3127 13.9609 22.2932C13.9556 22.2932 13.9503 22.2932 13.9451 22.2932C13.1952 22.2932 12.4957 22.657 12.0714 23.268C11.7735 23.6963 11.4095 24.1483 10.9896 24.6118C10.7397 24.8875 10.7606 25.3137 11.0364 25.5637C11.312 25.8135 11.7383 25.7927 11.9883 25.5169C12.4469 25.0108 12.8471 24.5131 13.1782 24.0372C13.3505 23.7888 13.6368 23.6411 13.9462 23.6411H13.9528C14.4522 23.6436 14.9522 23.6436 15.4526 23.6414C15.2466 27.7117 15.367 31.8313 15.8121 35.8995C15.8525 36.2622 15.945 36.6127 16.086 36.9389C16.6284 38.2069 17.821 39.0539 19.1975 39.1494C23.2721 39.436 27.4171 39.57 31.5166 39.55H31.5233C31.8531 39.55 32.1595 39.7081 32.3442 39.9741C33.7304 41.9689 35.9723 43.8733 37.6089 45.1195C37.9709 45.3953 38.401 45.5364 38.8352 45.5364C39.1414 45.5364 39.4496 45.4663 39.7372 45.3238C40.4332 44.9791 40.8656 44.2823 40.8656 43.5053V40.1736C40.8656 39.6488 41.2758 39.21 41.8002 39.1747L41.8153 39.1737C41.9304 39.1658 42.0455 39.158 42.1578 39.1494C43.9266 39.026 45.3505 37.6556 45.5438 35.8908C45.5636 35.709 45.5826 35.5272 45.6016 35.3445C45.6401 34.9743 45.3713 34.643 45.001 34.6046C44.6298 34.5658 44.2995 34.835 44.2611 35.2052C44.2424 35.3855 44.2236 35.565 44.204 35.7443C44.0819 36.8603 43.1818 37.7269 42.0604 37.8053C41.9475 37.8138 41.8354 37.8214 41.7234 37.8291L41.7089 37.8301C40.4803 37.9129 39.5179 38.9423 39.5179 40.1737V43.5054C39.5179 43.7703 39.3763 43.9986 39.1391 44.1161C38.9024 44.2333 38.6357 44.2076 38.4256 44.0474C36.8661 42.8598 34.7369 41.0557 33.4513 39.2053C33.0147 38.5765 32.2949 38.2023 31.5244 38.2023C31.5192 38.2023 31.514 38.2023 31.5088 38.2023C27.4431 38.2226 23.3332 38.0892 19.2916 37.805C18.4212 37.7446 17.6679 37.2096 17.3243 36.4066C17.2354 36.2009 17.1773 35.98 17.1518 35.7515C16.7118 31.7288 16.595 27.654 16.8031 23.629C19.8107 23.5896 22.8255 23.465 25.7987 23.2557C27.1326 23.1627 28.2877 22.3423 28.8128 21.1161C28.9509 20.7957 29.0403 20.4558 29.0785 20.1061C29.197 19.0247 29.2904 17.9401 29.3609 16.8537C32.0617 16.832 34.7927 16.8772 37.4892 16.9905C38.9862 17.0521 40.5249 17.1382 42.063 17.2464C43.1811 17.3246 44.0812 18.1882 44.203 19.2999C44.6846 23.6987 44.7793 28.1556 44.4843 32.5467C44.4594 32.918 44.7402 33.2393 45.1115 33.2641C45.127 33.2652 45.1421 33.2658 45.1574 33.2658C45.5089 33.2658 45.8052 32.993 45.8292 32.637C46.1295 28.1674 46.0332 23.6308 45.543 19.1535Z" fill="#222222"/>
<path d="M39.3176 28.853C39.3283 28.3231 39.1269 27.8198 38.7504 27.4356C38.6839 27.3677 38.6129 27.3049 38.5381 27.2475C38.7334 26.9398 38.8467 26.5751 38.8467 26.1844C38.8467 25.6527 38.6396 25.1533 38.2646 24.7789C37.8898 24.4035 37.3905 24.1968 36.8587 24.1968H34.2024L35.2019 22.0678C35.7681 20.8626 35.248 19.4213 34.0423 18.8549C33.7185 18.7029 33.3737 18.6257 33.0172 18.6257C32.0847 18.6257 31.2259 19.171 30.8294 20.015L30.2134 21.3277C29.9005 21.9939 29.4107 22.5363 28.7971 22.8962C28.2006 23.2459 27.7315 23.7587 27.4307 24.3816C27.2166 24.2844 26.9799 24.229 26.7299 24.229H24.7007C23.7618 24.229 22.9979 24.9928 22.9979 25.9319V34.127C22.9979 35.066 23.7618 35.8298 24.7007 35.8298H26.7299C27.0505 35.8298 27.3496 35.7391 27.606 35.5844C28.0858 35.8919 28.6438 36.0574 29.2268 36.0574H36.3871C37.483 36.0574 38.3746 35.1655 38.3746 34.0693C38.3746 33.8242 38.3305 33.5847 38.2435 33.3571C38.2414 33.351 38.239 33.345 38.2367 33.339C38.1916 33.2252 38.1369 33.1168 38.0727 33.0145C38.5433 32.6506 38.8468 32.0805 38.8468 31.4411C38.8468 31.0609 38.7409 30.6971 38.5433 30.3837C39.0033 30.0266 39.3055 29.4731 39.3176 28.853ZM24.7004 34.482C24.5047 34.482 24.3454 34.3228 24.3454 34.127V25.9319C24.3454 25.7361 24.5047 25.5768 24.7004 25.5768H26.7297C26.9255 25.5768 27.0847 25.7361 27.0847 25.9319V34.127C27.0847 34.3228 26.9255 34.482 26.7297 34.482H24.7004ZM37.3306 29.4534H36.8586C36.4863 29.4534 36.1847 29.7551 36.1847 30.1272C36.1847 30.4994 36.4863 30.8011 36.8586 30.8011C37.0299 30.8011 37.1905 30.8674 37.3114 30.9885C37.4323 31.1091 37.4988 31.2698 37.4988 31.441C37.4988 31.794 37.2117 32.0813 36.8586 32.0813H36.3869C36.0147 32.0813 35.713 32.383 35.713 32.7551C35.713 33.1273 36.0147 33.429 36.3869 33.429C36.5581 33.429 36.7188 33.4956 36.8396 33.6163C36.9001 33.6768 36.9472 33.7473 36.9798 33.8261C36.9807 33.8284 36.9816 33.8308 36.9825 33.8331C37.0118 33.908 37.0267 33.9875 37.0267 34.0692C37.0267 34.4223 36.7397 34.7095 36.3869 34.7095H29.2266C28.9294 34.7095 28.6447 34.6303 28.394 34.485C28.4188 34.3694 28.4326 34.2497 28.4326 34.1269C28.4326 34.1269 28.4326 25.9216 28.4325 25.9193C28.4269 25.6107 28.4872 25.3115 28.6122 25.0303C28.7945 24.6201 29.094 24.2843 29.4787 24.0589C30.3281 23.5606 31.004 22.8142 31.4331 21.9006L32.0491 20.5879C32.2245 20.2147 32.6044 19.9734 33.0169 19.9734C33.1738 19.9734 33.3259 20.0075 33.469 20.0747C34.002 20.3251 34.232 20.9621 33.9817 21.4948L32.5404 24.5651C32.4449 24.7685 32.457 25.0061 32.5727 25.1987C32.5831 25.2159 32.5892 25.2251 32.5957 25.2349C32.7197 25.4278 32.9333 25.5445 33.1627 25.5445H36.8586C37.0299 25.5445 37.1905 25.6108 37.3114 25.732C37.4324 25.8525 37.4988 26.0133 37.4988 26.1844C37.4988 26.5377 37.2117 26.825 36.8586 26.825C36.4863 26.825 36.1847 27.1267 36.1847 27.4989C36.1847 27.8711 36.4863 28.1728 36.8586 28.1728H37.301C37.482 28.1728 37.6594 28.2479 37.7878 28.3788C37.9087 28.5023 37.9734 28.661 37.9701 28.8261C37.9634 29.172 37.6765 29.4534 37.3306 29.4534Z" fill="#222222"/>
<path d="M20.984 9.15268C20.984 7.77858 20.3112 6.66064 19.4842 6.66064C18.6573 6.66064 17.9846 7.77858 17.9846 9.15268C17.9846 10.5268 18.6573 11.6447 19.4842 11.6447C20.3112 11.6447 20.984 10.5268 20.984 9.15268Z" fill="#222222"/>
<path d="M11.5334 9.15268C11.5334 7.77858 10.8607 6.66064 10.0337 6.66064C9.20678 6.66064 8.53406 7.77858 8.53406 9.15268C8.53406 10.5268 9.20678 11.6447 10.0337 11.6447C10.8607 11.6447 11.5334 10.5268 11.5334 9.15268Z" fill="#222222"/>
<path d="M14.759 18.027C17.1757 18.027 19.3442 16.5874 20.2835 14.3594C20.4281 14.0165 20.2673 13.6213 19.9244 13.4766C19.5812 13.3322 19.1862 13.4929 19.0416 13.8359C18.3134 15.5632 16.6324 16.6792 14.759 16.6792C12.8855 16.6792 11.2045 15.5632 10.4763 13.8359C10.3318 13.4929 9.93629 13.3323 9.59351 13.4766C9.25063 13.6212 9.0898 14.0165 9.23437 14.3594C10.1736 16.5874 12.3422 18.027 14.759 18.027Z" fill="#222222"/>
</g>
<defs>
<clipPath id="clip0_64_381">
<rect width="46" height="46" fill="white"/>
</clipPath>
</defs>
</svg>
