<svg width="14" height="15" viewBox="0 0 14 15" fill="none" xmlns="http://www.w3.org/2000/svg">
<g clip-path="url(#clip0_0_502)">
<path d="M13.8672 13.7745L10.2527 10.2177C11.1992 9.18927 11.7808 7.82921 11.7808 6.33261C11.7803 3.1311 9.14333 0.536133 5.89019 0.536133C2.63705 0.536133 6.10352e-05 3.1311 6.10352e-05 6.33261C6.10352e-05 9.53412 2.63705 12.1291 5.89019 12.1291C7.29577 12.1291 8.58494 11.6429 9.59757 10.8347L13.2262 14.4055C13.403 14.5797 13.69 14.5797 13.8668 14.4055C14.044 14.2313 14.044 13.9486 13.8672 13.7745ZM5.89019 11.2373C3.13768 11.2373 0.90634 9.04138 0.90634 6.33261C0.90634 3.62384 3.13768 1.42795 5.89019 1.42795C8.64272 1.42795 10.874 3.62384 10.874 6.33261C10.874 9.04138 8.64272 11.2373 5.89019 11.2373Z" fill="#222222"/>
</g>
<defs>
<clipPath id="clip0_0_502">
<rect width="14" height="14" fill="white" transform="translate(0 0.536133)"/>
</clipPath>
</defs>
</svg>
