<svg width="171" height="33" viewBox="0 0 171 33" fill="none" xmlns="http://www.w3.org/2000/svg">
<g clip-path="url(#clip0_0_672)">
<path d="M67.5821 6.32007H64V22.4833H73.9164V19.3162H67.5821V6.32007Z" fill="#222222"/>
<path d="M74.2585 17.0009C74.2585 20.452 76.5738 22.7454 80.0685 22.7454C83.5414 22.7454 85.8567 20.452 85.8567 17.0009C85.8567 13.5498 83.5414 11.2345 80.0685 11.2345C76.5738 11.2345 74.2585 13.5498 74.2585 17.0009ZM77.644 16.979C77.644 15.3409 78.6051 14.2488 80.0685 14.2488C81.5101 14.2488 82.4712 15.3409 82.4712 16.979C82.4712 18.6391 81.5101 19.7312 80.0685 19.7312C78.6051 19.7312 77.644 18.6391 77.644 16.979Z" fill="#222222"/>
<path d="M86.3978 16.8262C86.3978 20.1243 88.5384 22.3522 91.5744 22.3522C93.0379 22.3522 94.3047 21.828 94.9381 20.9762V22.4833C94.9381 23.9904 93.9989 24.9951 92.3389 24.9951C90.8536 24.9951 89.827 24.2962 89.7615 23.0512H86.3541C86.6599 26.0436 88.9752 28.053 92.1423 28.053C95.8773 28.053 98.2363 25.6286 98.2363 21.7843V11.5622H95.2002L95.0255 12.6761C94.4139 11.7806 93.1252 11.1909 91.64 11.1909C88.582 11.1909 86.3978 13.4843 86.3978 16.8262ZM89.8052 16.7388C89.8052 15.1661 90.8536 14.1177 92.186 14.1177C93.7368 14.1177 94.8726 15.1443 94.8726 16.7388C94.8726 18.3333 93.7586 19.4254 92.2078 19.4254C90.8755 19.4254 89.8052 18.3333 89.8052 16.7388Z" fill="#222222"/>
<path d="M99.2166 17.0009C99.2166 20.452 101.532 22.7454 105.027 22.7454C108.5 22.7454 110.815 20.452 110.815 17.0009C110.815 13.5498 108.5 11.2345 105.027 11.2345C101.532 11.2345 99.2166 13.5498 99.2166 17.0009ZM102.602 16.979C102.602 15.3409 103.563 14.2488 105.027 14.2488C106.468 14.2488 107.429 15.3409 107.429 16.979C107.429 18.6391 106.468 19.7312 105.027 19.7312C103.563 19.7312 102.602 18.6391 102.602 16.979Z" fill="#222222"/>
<path d="M113.715 9.85852C114.763 9.85852 115.615 9.00667 115.615 7.9364C115.615 6.86613 114.763 6.03613 113.715 6.03613C112.645 6.03613 111.793 6.86613 111.793 7.9364C111.793 9.00667 112.645 9.85852 113.715 9.85852ZM112.011 22.4833H115.397V11.5622H112.011V22.4833Z" fill="#222222"/>
<path d="M117.368 27.7255H120.688V21.3913C121.321 22.2213 122.763 22.7892 124.27 22.7892C127.524 22.7892 129.49 20.2992 129.403 16.8481C129.315 13.3315 127.284 11.2128 124.248 11.2128C122.697 11.2128 121.234 11.8899 120.622 12.8947L120.447 11.5623H117.368V27.7255ZM120.753 17.0228C120.753 15.3847 121.845 14.2926 123.418 14.2926C125.012 14.2926 126.017 15.4065 126.017 17.0228C126.017 18.6392 125.012 19.7531 123.418 19.7531C121.845 19.7531 120.753 18.661 120.753 17.0228Z" fill="#222222"/>
<path d="M129.761 19.0323C129.848 21.2384 131.596 22.7673 134.348 22.7673C136.991 22.7673 138.826 21.3694 138.826 19.1197C138.826 17.5034 137.865 16.4331 136.073 15.9962L134.13 15.5157C133.431 15.341 132.994 15.1662 132.994 14.5983C132.994 14.0304 133.452 13.6591 134.13 13.6591C134.894 13.6591 135.396 14.1615 135.375 14.9041H138.411C138.323 12.6325 136.598 11.2128 134.195 11.2128C131.771 11.2128 129.958 12.6544 129.958 14.8386C129.958 16.302 130.766 17.5034 132.928 18.0713L134.85 18.5736C135.418 18.7265 135.658 18.9886 135.658 19.3599C135.658 19.906 135.156 20.2555 134.304 20.2555C133.321 20.2555 132.797 19.7968 132.797 19.0323H129.761Z" fill="#222222"/>
<path d="M143.974 22.7673C145.307 22.7673 146.639 22.1557 147.316 21.2602L147.535 22.4834H150.702V11.5623H147.338V17.2413C147.338 18.8794 146.858 19.7749 145.307 19.7749C144.105 19.7749 143.319 19.2289 143.319 17.1976V11.5623H139.955V18.4207C139.955 21.02 141.397 22.7673 143.974 22.7673Z" fill="#222222"/>
<path d="M156.036 22.4833V16.5204C156.036 14.6856 157.019 14.1614 157.98 14.1614C159.05 14.1614 159.749 14.8167 159.749 16.1709V22.4833H163.069V16.5204C163.069 14.6638 164.03 14.1396 164.991 14.1396C166.061 14.1396 166.782 14.7948 166.782 16.1709V22.4833H170.059V15.3409C170.059 12.8509 168.748 11.1909 165.93 11.1909C164.358 11.1909 163.069 11.9553 162.501 13.1348C161.846 11.9553 160.71 11.1909 158.897 11.1909C157.696 11.1909 156.582 11.7369 155.927 12.6106L155.796 11.5622H152.65V22.4833H156.036Z" fill="#222222"/>
<path d="M0 16.0361C0 7.19957 7.16344 0.0361328 16 0.0361328H37C45.8366 0.0361328 53 7.19957 53 16.0361V32.0361H16C7.16344 32.0361 0 24.8727 0 16.0361Z" fill="#222222"/>
<path d="M37 6.03613H16C10.4772 6.03613 6 10.5133 6 16.0361C6 21.559 10.4772 26.0361 16 26.0361H37C42.5228 26.0361 47 21.559 47 16.0361C47 10.5133 42.5228 6.03613 37 6.03613Z" fill="#222222"/>
<path d="M16 21.0361C18.7614 21.0361 21 18.7976 21 16.0361C21 13.2747 18.7614 11.0361 16 11.0361C13.2386 11.0361 11 13.2747 11 16.0361C11 18.7976 13.2386 21.0361 16 21.0361Z" fill="#222222"/>
<path d="M14 15.0361C14.5523 15.0361 15 14.5884 15 14.0361C15 13.4838 14.5523 13.0361 14 13.0361C13.4477 13.0361 13 13.4838 13 14.0361C13 14.5884 13.4477 15.0361 14 15.0361Z" fill="white"/>
<path d="M38 21.0361C40.7614 21.0361 43 18.7976 43 16.0361C43 13.2747 40.7614 11.0361 38 11.0361C35.2386 11.0361 33 13.2747 33 16.0361C33 18.7976 35.2386 21.0361 38 21.0361Z" fill="#222222"/>
<path d="M36 15.0361C36.5523 15.0361 37 14.5884 37 14.0361C37 13.4838 36.5523 13.0361 36 13.0361C35.4477 13.0361 35 13.4838 35 14.0361C35 14.5884 35.4477 15.0361 36 15.0361Z" fill="white"/>
</g>
<defs>
<clipPath id="clip0_0_672">
<rect width="171" height="32" fill="white" transform="translate(0 0.0361328)"/>
</clipPath>
</defs>
</svg>
