<svg width="134" height="36" viewBox="0 0 134 36" fill="none" xmlns="http://www.w3.org/2000/svg">
<path d="M39.0935 11.7961H42.3521V24.7961H39.0935V11.7961ZM43.6515 19.9061C43.6515 16.6861 45.6818 14.7561 48.7273 14.7561C51.7727 14.7561 53.8031 16.6861 53.8031 19.9061C53.8031 23.1261 51.8438 25.0761 48.7273 25.0761C45.6108 25.0761 43.6515 23.1961 43.6515 19.9061ZM50.5749 19.9061C50.5749 18.1361 49.8744 17.0961 48.7577 17.0961C47.6411 17.0961 46.9508 18.0961 46.9508 19.9061C46.9508 21.7161 47.6411 22.7061 48.7577 22.7061C49.8744 22.7061 50.5952 21.7161 50.5952 19.9161L50.5749 19.9061ZM55.1024 25.4661H58.2494C58.3927 25.7998 58.6429 26.0783 58.9618 26.2588C59.2808 26.4394 59.6509 26.5122 60.0158 26.4661C61.2644 26.4661 61.9141 25.8061 61.9141 24.8261V23.0261H61.9243C61.6554 23.5866 61.2205 24.0537 60.6769 24.3661C60.1333 24.6785 59.5065 24.8214 58.8788 24.7761C56.4932 24.7761 54.9096 22.9861 54.9096 19.9061C54.9096 16.8261 56.4221 14.9061 58.9702 14.9061C59.6139 14.8722 60.2525 15.0357 60.7979 15.3742C61.3433 15.7127 61.7687 16.2095 62.0156 16.7961H61.9243V14.9861H65.1524V24.7261C65.1524 27.0761 63.0409 28.5461 59.9346 28.5461C57.1124 28.5361 55.3055 27.2661 55.1227 25.4761L55.1024 25.4661ZM61.9243 19.9061C61.9243 18.3361 61.1934 17.3461 60.0361 17.3461C58.8788 17.3461 58.1682 18.3461 58.1682 19.9061C58.1682 21.4661 58.8687 22.3861 60.0361 22.3861C61.2035 22.3861 61.9243 21.5361 61.9243 19.9061ZM66.4417 19.9061C66.4417 16.6861 68.472 14.7561 71.5174 14.7561C74.5629 14.7561 76.5932 16.6861 76.5932 19.9061C76.5932 23.1261 74.6238 25.0761 71.5174 25.0761C68.4111 25.0761 66.462 23.1961 66.462 19.9061H66.4417ZM73.365 19.9061C73.365 18.1361 72.6544 17.0961 71.5479 17.0961C70.4414 17.0961 69.7409 18.0961 69.7409 19.9061C69.7409 21.7161 70.4312 22.7061 71.5479 22.7061C72.6646 22.7061 73.3853 21.7161 73.3853 19.9161L73.365 19.9061ZM77.9129 12.6161C77.8987 12.2891 77.9842 11.9654 78.1583 11.6867C78.3324 11.4079 78.5872 11.1869 78.8899 11.052C79.1926 10.917 79.5293 10.8744 79.8568 10.9296C80.1843 10.9847 80.4875 11.1351 80.7275 11.3614C80.9675 11.5878 81.1333 11.8796 81.2035 12.1995C81.2737 12.5194 81.2451 12.8527 81.1215 13.1564C80.9978 13.4602 80.7848 13.7206 80.5097 13.9041C80.2346 14.0876 79.91 14.1858 79.5777 14.1861C79.3655 14.1914 79.1541 14.1551 78.9562 14.0794C78.7582 14.0036 78.5774 13.8898 78.4244 13.7447C78.2715 13.5996 78.1492 13.426 78.065 13.2339C77.9806 13.0419 77.9358 12.8353 77.9332 12.6261L77.9129 12.6161ZM77.9129 14.9761H81.2121V24.8361H77.9637L77.9129 14.9761ZM93.0793 19.9061C93.0793 23.1161 91.6175 24.9761 89.1303 24.9761C88.4936 25.0148 87.8602 24.86 87.3155 24.5328C86.7709 24.2055 86.3414 23.7215 86.0849 23.1461H86.024V28.0061H82.7653V15.0061H86.0037V16.7661H86.0646C86.3123 16.1794 86.7376 15.6821 87.2825 15.3421C87.8276 15.0021 88.4657 14.8359 89.11 14.8661C91.6682 14.8461 93.1402 16.6961 93.1402 19.9161L93.0793 19.9061ZM89.7597 19.9061C89.7597 18.3461 89.0187 17.3361 87.8715 17.3361C86.7244 17.3361 86.0037 18.3361 85.9935 19.9061C85.9834 21.4761 86.7244 22.4661 87.8715 22.4661C89.0187 22.4661 89.8206 21.5361 89.8206 19.9161L89.7597 19.9061ZM98.6423 14.7461C101.373 14.7461 103.068 16.0161 103.089 18.0561H100.114C100.114 17.3461 99.5153 16.9061 98.622 16.9061C97.7287 16.9061 97.3023 17.2461 97.3023 17.7561C97.3023 18.2661 97.6779 18.4261 98.4291 18.5761L100.52 18.9961C102.551 19.4161 103.363 20.2161 103.363 21.7061C103.363 23.7061 101.485 25.0661 98.6931 25.0661C95.9014 25.0661 94.0843 23.7461 93.9523 21.7361H97.1094C97.2008 22.4661 97.7896 22.8961 98.7438 22.8961C99.698 22.8961 100.145 22.5961 100.145 22.0661C100.145 21.5361 99.8402 21.4461 99.0585 21.2861L97.1703 20.8961C95.2111 20.4861 94.1858 19.4761 94.1858 17.9661C94.2467 16.0061 95.9521 14.7561 98.7032 14.7561L98.6423 14.7461ZM114.276 24.8261H111.118V22.9761H111.058C110.881 23.5932 110.496 24.1325 109.966 24.5051C109.436 24.8778 108.794 25.0615 108.144 25.0261C107.654 25.0418 107.164 24.9552 106.711 24.7718C106.257 24.5885 105.847 24.3126 105.509 23.9623C105.17 23.6119 104.911 23.195 104.747 22.739C104.584 22.283 104.52 21.798 104.561 21.3161V14.9861H107.819V20.6261C107.819 21.7861 108.438 22.4161 109.454 22.4161C109.692 22.4143 109.927 22.3622 110.143 22.2634C110.359 22.1645 110.551 22.0211 110.705 21.8429C110.861 21.6647 110.975 21.4558 111.041 21.2304C111.106 21.0049 111.123 20.7682 111.088 20.5361V14.9861H114.337L114.276 24.8261ZM115.849 14.9761H119.016V16.8761H119.087C119.262 16.2674 119.638 15.7331 120.153 15.3567C120.67 14.9804 121.298 14.7832 121.94 14.7961C122.585 14.7409 123.227 14.9245 123.741 15.311C124.256 15.6975 124.605 16.2592 124.722 16.8861H124.864C125.067 16.2558 125.475 15.7092 126.026 15.3313C126.576 14.9533 127.239 14.7652 127.909 14.7961C128.355 14.7794 128.799 14.8556 129.213 15.0197C129.627 15.1837 130 15.432 130.31 15.7483C130.62 16.0645 130.857 16.4416 131.008 16.8548C131.161 17.268 131.222 17.708 131.188 18.1461V24.8361H127.909V18.9661C127.909 17.9661 127.432 17.4061 126.508 17.4061C126.303 17.4028 126.1 17.4432 125.912 17.5244C125.725 17.6057 125.558 17.726 125.422 17.877C125.286 18.0281 125.184 18.2062 125.125 18.3994C125.066 18.5926 125.049 18.7961 125.077 18.9961V24.8361H121.97V18.9361C121.97 17.9361 121.473 17.4061 120.58 17.4061C120.373 17.4045 120.168 17.4465 119.979 17.5293C119.789 17.6122 119.62 17.7339 119.482 17.8864C119.345 18.0389 119.243 18.2186 119.182 18.4134C119.12 18.6083 119.102 18.8138 119.128 19.0161V24.8361H115.869L115.849 14.9761Z" fill="#222222"/>
<path d="M32.6473 12.6461C32.6474 10.6558 32.0373 8.71186 30.8969 7.06892C29.7565 5.42598 28.1388 4.16063 26.256 3.43863C24.3732 2.71662 22.3129 2.57162 20.345 3.02261C18.377 3.4736 16.5933 4.49956 15.2273 5.9661H2.55823V32.3061H29.3075V19.9961C30.3573 19.0711 31.1975 17.9384 31.7729 16.6719C32.3484 15.4054 32.6464 14.0337 32.6473 12.6461ZM27.5005 12.6461C27.5025 13.5998 27.2173 14.5327 26.6808 15.3267C26.1443 16.1206 25.3809 16.74 24.487 17.1063C23.5931 17.4727 22.609 17.5696 21.6591 17.3847C20.7093 17.1999 19.8365 16.7416 19.1512 16.0679C18.4658 15.3942 17.9989 14.5354 17.8092 13.6001C17.6196 12.6649 17.7159 11.6952 18.086 10.8139C18.456 9.93256 19.0831 9.17919 19.888 8.64912C20.6929 8.11905 21.6393 7.83611 22.6075 7.8361C23.9034 7.8361 25.1464 8.34255 26.0637 9.24431C26.9811 10.1461 27.4978 11.3695 27.5005 12.6461ZM24.1606 27.2361H7.70505V11.0361H12.7199C12.623 11.5676 12.5721 12.1062 12.5676 12.6461C12.5703 15.2683 13.6289 17.7823 15.5112 19.6365C17.3934 21.4906 19.9455 22.5335 22.6075 22.5361C23.1279 22.5334 23.6473 22.4899 24.1606 22.4061V27.2361Z" fill="#222222"/>
</svg>
