<svg width="124" height="33" viewBox="0 0 124 33" fill="none" xmlns="http://www.w3.org/2000/svg">
<path d="M36.87 10.1061H39.87V22.2361H36.87V10.1061ZM41.06 17.6561C41.06 14.6561 42.9 12.8661 45.74 12.8661C48.58 12.8661 50.42 14.6561 50.42 17.6561C50.42 20.6561 48.62 22.4561 45.74 22.4561C42.86 22.4561 41.06 20.7061 41.06 17.6561ZM47.41 17.6561C47.41 16.0061 46.76 15.0361 45.74 15.0361C44.72 15.0361 44.08 16.0361 44.08 17.6561C44.08 19.2761 44.71 20.2561 45.74 20.2561C46.77 20.2561 47.41 19.3361 47.41 17.6661V17.6561ZM51.55 22.8261H54.43C54.5671 23.1306 54.7988 23.3827 55.0907 23.5449C55.3826 23.707 55.7191 23.7706 56.05 23.7261C57.19 23.7261 57.79 23.1061 57.79 22.2061V20.5261H57.73C57.491 21.041 57.1031 21.4724 56.6165 21.7648C56.1299 22.0571 55.5668 22.1969 55 22.1661C52.81 22.1661 51.36 20.4961 51.36 17.6261C51.36 14.7561 52.74 12.9461 55.04 12.9461C55.6246 12.9232 56.2022 13.0795 56.6955 13.394C57.1888 13.7086 57.5742 14.1664 57.8 14.7061V13.0361H60.8V22.1361C60.8 24.3261 58.87 25.6861 56.02 25.6861C53.37 25.6861 51.72 24.4961 51.55 22.8361V22.8261ZM57.8 17.6461C57.8 16.1861 57.13 15.2661 56.07 15.2661C55.01 15.2661 54.36 16.1761 54.36 17.6461C54.36 19.1161 55 19.9461 56.07 19.9461C57.14 19.9461 57.8 19.1361 57.8 17.6561V17.6461ZM61.93 17.6461C61.93 14.6461 63.77 12.8561 66.61 12.8561C69.45 12.8561 71.3 14.6461 71.3 17.6461C71.3 20.6461 69.5 22.4461 66.61 22.4461C63.72 22.4461 61.93 20.7061 61.93 17.6561V17.6461ZM68.28 17.6461C68.28 15.9961 67.63 15.0261 66.61 15.0261C65.59 15.0261 65 16.0361 65 17.6661C65 19.2961 65.63 20.2661 66.65 20.2661C67.67 20.2661 68.28 19.3361 68.28 17.6661V17.6461ZM72.44 10.8561C72.4321 10.5532 72.5144 10.2548 72.6763 9.99868C72.8383 9.74258 73.0726 9.54034 73.3496 9.41758C73.6266 9.29482 73.9338 9.25707 74.2323 9.30912C74.5308 9.36118 74.8071 9.50069 75.0262 9.70996C75.2454 9.91924 75.3974 10.1889 75.4631 10.4847C75.5288 10.7805 75.5052 11.0891 75.3952 11.3715C75.2853 11.6538 75.094 11.8972 74.8456 12.0707C74.5973 12.2442 74.3029 12.3401 74 12.3461C73.7992 12.3599 73.5977 12.332 73.4082 12.2642C73.2186 12.1964 73.0452 12.0902 72.8987 11.9521C72.7522 11.8141 72.6358 11.6472 72.5569 11.462C72.4779 11.2769 72.4381 11.0774 72.44 10.8761V10.8561ZM72.44 13.0561H75.44V22.2361H72.44V13.0561ZM86.33 17.6461C86.33 20.6461 85 22.3561 82.72 22.3561C82.1354 22.3936 81.5533 22.2507 81.0525 21.9467C80.5517 21.6426 80.1564 21.1921 79.92 20.6561H79.86V25.1761H76.86V13.0361H79.86V14.6761H79.92C80.1454 14.1312 80.5332 13.669 81.0306 13.3523C81.528 13.0356 82.1109 12.8798 82.7 12.9061C85 12.9461 86.37 14.6661 86.37 17.6661L86.33 17.6461ZM83.33 17.6461C83.33 16.1861 82.66 15.2561 81.61 15.2561C80.56 15.2561 79.89 16.1961 79.88 17.6461C79.87 19.0961 80.56 20.0261 81.61 20.0261C82.66 20.0261 83.33 19.1161 83.33 17.6661V17.6461ZM91.48 12.8461C93.97 12.8461 95.48 14.0261 95.55 15.9161H92.82C92.82 15.2661 92.28 14.8561 91.45 14.8561C90.62 14.8561 90.25 15.1761 90.25 15.6461C90.25 16.1161 90.58 16.2661 91.25 16.4061L93.17 16.7961C95 17.1861 95.78 17.9261 95.78 19.3161C95.78 21.2161 94.05 22.4361 91.5 22.4361C88.95 22.4361 87.28 21.2161 87.15 19.3461H90.04C90.13 20.0261 90.67 20.4261 91.55 20.4261C92.43 20.4261 92.83 20.1361 92.83 19.6561C92.83 19.1761 92.55 19.0761 91.83 18.9261L90.1 18.5561C88.31 18.1861 87.37 17.2361 87.37 15.8361C87.39 14.0361 89 12.8661 91.48 12.8661V12.8461ZM105.79 22.2161H102.9V20.5061H102.84C102.681 21.0802 102.331 21.5827 101.847 21.9302C101.363 22.2776 100.775 22.4491 100.18 22.4161C99.7242 22.442 99.2682 22.3698 98.8427 22.2043C98.4172 22.0388 98.0322 21.784 97.7137 21.4569C97.3952 21.1299 97.1505 20.7382 96.9964 20.3085C96.8422 19.8788 96.7821 19.421 96.82 18.9661V13.0361H99.82V18.2761C99.82 19.3661 100.38 19.9461 101.31 19.9461C101.528 19.9465 101.744 19.9004 101.943 19.8107C102.141 19.721 102.319 19.5898 102.463 19.426C102.606 19.2621 102.714 19.0694 102.777 18.8608C102.84 18.6521 102.859 18.4323 102.83 18.2161V13.0361H105.83L105.79 22.2161ZM107.24 13.0361H110.14V14.8061H110.2C110.359 14.2396 110.702 13.7418 111.174 13.3908C111.646 13.0398 112.222 12.8552 112.81 12.8661C113.409 12.8182 114.003 12.9973 114.476 13.3679C114.948 13.7385 115.264 14.2733 115.36 14.8661H115.42C115.601 14.267 115.977 13.7454 116.488 13.3833C116.998 13.0212 117.615 12.8392 118.24 12.8661C118.648 12.8524 119.054 12.9247 119.432 13.0783C119.811 13.2318 120.152 13.4633 120.435 13.7575C120.718 14.0518 120.936 14.4023 121.075 14.7862C121.213 15.1701 121.27 15.579 121.24 15.9861V22.2361H118.24V16.7861C118.24 15.7861 117.79 15.3261 116.95 15.3261C116.763 15.3245 116.577 15.3631 116.406 15.4393C116.235 15.5155 116.082 15.6275 115.958 15.7678C115.834 15.9081 115.741 16.0733 115.686 16.2524C115.631 16.4316 115.616 16.6204 115.64 16.8061V22.2361H112.79V16.7461C112.79 15.8261 112.34 15.3261 111.52 15.3261C111.331 15.3262 111.143 15.3664 110.971 15.4441C110.798 15.5219 110.643 15.6354 110.518 15.7771C110.392 15.9188 110.298 16.0856 110.241 16.2665C110.185 16.4473 110.167 16.638 110.19 16.8261V22.2361H107.19L107.24 13.0361Z" fill="#222222"/>
<path d="M28.48 10.6561C27.9711 9.49251 27.2976 8.40808 26.48 7.43615C25.2715 5.95649 23.7633 4.74954 22.0547 3.89475C20.3461 3.03997 18.4758 2.55672 16.567 2.47681C14.6582 2.3969 12.7541 2.72214 10.98 3.43114C9.20594 4.14013 7.60214 5.2168 6.27417 6.59028C4.94619 7.96375 3.92414 9.6029 3.27529 11.3998C2.62644 13.1967 2.36549 15.1107 2.50963 17.0157C2.65378 18.9208 3.19973 20.7737 4.11157 22.4525C5.02341 24.1314 6.28046 25.5981 7.79998 26.7561C8.77498 27.514 9.85233 28.1301 11 28.5861C12.609 29.2455 14.3311 29.5851 16.07 29.5861C19.6594 29.5782 23.0992 28.1474 25.6355 25.6074C28.1717 23.0674 29.5974 19.6255 29.6 16.0361C29.6026 14.1846 29.2213 12.3527 28.48 10.6561ZM16.06 5.22614C17.6216 5.22598 19.1643 5.56728 20.58 6.22614C20.2348 6.37531 19.8718 6.4795 19.5 6.53615C18.2766 6.71324 17.1433 7.28122 16.2692 8.15532C15.3951 9.02941 14.8271 10.1627 14.65 11.3861C14.5723 12.0722 14.2602 12.7105 13.7665 13.1933C13.2728 13.6761 12.6277 13.9737 11.94 14.0361C10.7166 14.2132 9.58324 14.7812 8.70915 15.6553C7.83506 16.5294 7.26707 17.6627 7.08998 18.8861C7.03002 19.5385 6.75167 20.1516 6.29998 20.6261C5.52063 18.9794 5.17053 17.1622 5.28225 15.3438C5.39397 13.5254 5.96388 11.7648 6.93895 10.2258C7.91401 8.68694 9.26255 7.41966 10.8591 6.54199C12.4556 5.66432 14.2482 5.20479 16.07 5.20614L16.06 5.22614ZM7.78998 23.0361C7.90998 22.9261 8.02998 22.8261 8.14998 22.7061C9.03963 21.8436 9.61069 20.705 9.76998 19.4761C9.83456 18.7853 10.143 18.1401 10.64 17.6561C11.1183 17.1583 11.762 16.8524 12.45 16.7961C13.6734 16.619 14.8067 16.051 15.6808 15.1769C16.5549 14.3028 17.1229 13.1695 17.3 11.9461C17.3433 11.2236 17.6533 10.5429 18.17 10.0361C18.6601 9.548 19.3099 9.25325 20 9.20614C21.1239 9.05151 22.1721 8.55186 23 7.77615C23.9427 8.55822 24.7413 9.49904 25.36 10.5561C25.322 10.6074 25.2784 10.6544 25.23 10.6961C24.7527 11.1983 24.1098 11.5109 23.42 11.5761C22.1953 11.7501 21.0603 12.3171 20.1856 13.1917C19.311 14.0664 18.744 15.2014 18.57 16.4261C18.4995 17.1145 18.1932 17.7574 17.703 18.2458C17.2127 18.7343 16.5687 19.0382 15.88 19.1061C14.653 19.2818 13.5155 19.8487 12.6363 20.7224C11.7572 21.5962 11.1833 22.7302 11 23.9561C10.9462 24.4448 10.7783 24.9141 10.51 25.3261C9.48397 24.7169 8.56507 23.9433 7.78998 23.0361ZM16.06 26.8961C15.0453 26.8972 14.0354 26.7558 13.06 26.4761C13.3937 25.8541 13.6106 25.1762 13.7 24.4761C13.7701 23.7892 14.075 23.1475 14.5632 22.6593C15.0514 22.1711 15.6931 21.8662 16.38 21.7961C17.6052 21.621 18.7408 21.0539 19.6169 20.1796C20.4929 19.3054 21.0624 18.1709 21.24 16.9461C21.3101 16.2592 21.615 15.6175 22.1032 15.1293C22.5914 14.6411 23.2331 14.3362 23.92 14.2661C24.842 14.1462 25.7208 13.8029 26.48 13.2661C26.9016 14.864 26.9515 16.5372 26.626 18.1574C26.3005 19.7776 25.6081 21.3018 24.6021 22.6129C23.5961 23.9239 22.3032 24.9872 20.8224 25.721C19.3417 26.4548 17.7126 26.8397 16.06 26.8461V26.8961Z" fill="#222222"/>
</svg>
