<svg width="130" height="41" viewBox="0 0 130 41" fill="none" xmlns="http://www.w3.org/2000/svg">
<path d="M19.9606 2.0874C17.6082 2.0874 15.2788 2.55171 13.1054 3.45366C10.9321 4.35571 8.95741 5.67776 7.29392 7.34443C5.63053 9.0112 4.31108 10.9898 3.41081 13.1674C2.51063 15.345 2.04724 17.6791 2.04724 20.0361C2.04724 22.3931 2.51063 24.7272 3.41081 26.9048C4.31108 29.0825 5.63053 31.061 7.29392 32.7278C8.95741 34.3945 10.9321 35.7165 13.1054 36.6186C15.2788 37.5205 17.6082 37.9848 19.9606 37.9848V29.0105C18.7844 29.0105 17.6197 28.7784 16.533 28.3273C15.4464 27.8763 14.459 27.2153 13.6273 26.382C12.7956 25.5486 12.1359 24.5593 11.6858 23.4705C11.2356 22.3817 11.0039 21.2147 11.0039 20.0361C11.0039 18.8576 11.2356 17.6906 11.6858 16.6018C12.1359 15.5129 12.7956 14.5236 13.6273 13.6903C14.459 12.8569 15.4464 12.1959 16.533 11.7449C17.6197 11.2939 18.7844 11.0618 19.9606 11.0618V2.0874Z" fill="#222222"/>
<path d="M19.9607 26.019C23.2585 26.019 25.9318 23.3404 25.9318 20.0361C25.9318 16.7318 23.2585 14.0532 19.9607 14.0532C16.6629 14.0532 13.9896 16.7318 13.9896 20.0361C13.9896 23.3404 16.6629 26.019 19.9607 26.019Z" fill="#222222"/>
<path d="M2.04724 20.0361C2.04724 22.3932 2.51063 24.7272 3.41081 26.9049C4.31108 29.0825 5.63053 31.0611 7.29392 32.7278C8.95741 34.3945 10.9321 35.7165 13.1054 36.6186C15.2788 37.5205 17.6082 37.9848 19.9606 37.9848C22.313 37.9848 24.6425 37.5205 26.8158 36.6186C28.9892 35.7165 30.9638 34.3945 32.6273 32.7278C34.2907 31.0611 35.6102 29.0825 36.5104 26.9049C37.4106 24.7272 37.874 22.3932 37.874 20.0361H28.9173C28.9173 21.2147 28.6857 22.3817 28.2355 23.4705C27.7854 24.5593 27.1257 25.5486 26.294 26.382C25.4623 27.2153 24.4749 27.8763 23.3882 28.3273C22.3015 28.7784 21.1369 29.0105 19.9606 29.0105C18.7844 29.0105 17.6197 28.7784 16.533 28.3273C15.4464 27.8763 14.459 27.2153 13.6273 26.382C12.7956 25.5486 12.1359 24.5593 11.6858 23.4705C11.2356 22.3817 11.0039 21.2147 11.0039 20.0361H2.04724Z" fill="#222222"/>
<path d="M25.9318 20.0361C25.9318 18.4493 25.3027 16.9276 24.1829 15.8055C23.0631 14.6835 21.5443 14.0531 19.9607 14.0531C18.3771 14.0531 16.8583 14.6835 15.7385 15.8055C14.6186 16.9276 13.9895 18.4493 13.9895 20.0361H19.9607H25.9318Z" fill="#222222"/>
<path d="M47.2295 13.2926H45.0046V25.6772H47.2295V13.2926Z" fill="#222222"/>
<path d="M48.6824 21.2894C48.6824 24.1556 50.66 25.9248 53.2733 25.9248C55.8866 25.9248 57.8643 24.1556 57.8643 21.2894C57.8643 18.4233 55.8866 16.6541 53.2733 16.6541C50.66 16.6541 48.6824 18.4233 48.6824 21.2894ZM50.9072 21.2894C50.9072 19.591 51.896 18.6002 53.2733 18.6002C54.6506 18.6002 55.6394 19.591 55.6394 21.2894C55.6394 22.9879 54.6506 23.9787 53.2733 23.9787C51.896 23.9787 50.9072 22.9879 50.9072 21.2894Z" fill="#222222"/>
<path d="M65.8148 16.9017V18.0871H65.6382C65.1085 17.3264 64.2609 16.6541 62.7424 16.6541C60.6588 16.6541 58.7871 18.4233 58.7871 21.1479C58.7871 23.8725 60.6588 25.6417 62.7424 25.6417C64.2609 25.6417 65.1085 24.9517 65.6029 24.2617H65.7795V25.111C65.7795 26.8094 64.7907 27.5879 63.3427 27.5879C61.8948 27.5879 61.1532 26.8094 60.853 25.8009L58.8577 26.6679C59.3168 27.9948 60.6588 29.4633 63.3781 29.4633C66.1679 29.4633 68.0043 27.9948 68.0043 25.164V16.9017H65.8148ZM63.4134 23.731C62.0361 23.731 61.012 22.7402 61.012 21.1479C61.012 19.5556 62.0361 18.5648 63.4134 18.5648C64.7907 18.5648 65.8148 19.5556 65.8148 21.1479C65.8148 22.7402 64.7907 23.731 63.4134 23.731Z" fill="#222222"/>
<path d="M69.4436 21.2894C69.4436 24.1556 71.4212 25.9248 74.0345 25.9248C76.6479 25.9248 78.6254 24.1556 78.6254 21.2894C78.6254 18.4233 76.6479 16.6541 74.0345 16.6541C71.4212 16.6541 69.4436 18.4233 69.4436 21.2894ZM71.6684 21.2894C71.6684 19.591 72.6573 18.6002 74.0345 18.6002C75.4118 18.6002 76.4007 19.591 76.4007 21.2894C76.4007 22.9879 75.4118 23.9787 74.0345 23.9787C72.6573 23.9787 71.6684 22.9879 71.6684 21.2894Z" fill="#222222"/>
<path d="M80.3717 14.3541C80.3717 15.2564 81.0606 15.8756 81.944 15.8756C82.8264 15.8756 83.5152 15.2564 83.5152 14.3541C83.5152 13.4518 82.8264 12.8325 81.944 12.8325C81.0606 12.8325 80.3717 13.4518 80.3717 14.3541ZM83.0556 16.9018H80.8313V25.6771H83.0556V16.9018Z" fill="#222222"/>
<path d="M85.0385 29.2156H87.2638V24.5448H87.4399C87.9343 25.2525 88.7818 25.9248 90.3009 25.9248C92.384 25.9248 94.2562 24.1556 94.2562 21.2894C94.2562 18.4233 92.384 16.6541 90.3009 16.6541C88.7818 16.6541 87.9343 17.3264 87.4051 18.0872H87.228V16.9017H85.0385V29.2156ZM89.6294 24.0141C88.2526 24.0141 87.228 23.0233 87.228 21.2894C87.228 19.5556 88.2526 18.5648 89.6294 18.5648C91.0072 18.5648 92.0308 19.5556 92.0308 21.2894C92.0308 23.0233 91.0072 24.0141 89.6294 24.0141Z" fill="#222222"/>
<path d="M95.5541 19.361C95.5541 21.0949 97.0015 21.7318 98.8378 22.0856L99.2974 22.1741C100.392 22.3864 100.886 22.6518 100.886 23.218C100.886 23.7841 100.392 24.2264 99.3681 24.2264C98.3434 24.2264 97.5143 23.8017 97.284 22.5279L95.2357 23.0587C95.5367 24.8987 97.0721 25.9248 99.3681 25.9248C101.592 25.9248 103.041 24.881 103.041 23.041C103.041 21.2009 101.558 20.7056 99.58 20.3164L99.1204 20.2279C98.2022 20.051 97.7078 19.8033 97.7078 19.2195C97.7078 18.6887 98.1674 18.3525 99.0149 18.3525C99.8625 18.3525 100.462 18.7064 100.674 19.6617L102.688 19.0426C102.264 17.6272 100.975 16.6541 99.0149 16.6541C96.9308 16.6541 95.5541 17.6272 95.5541 19.361Z" fill="#222222"/>
<path d="M113.034 25.6771V16.9017H110.81V21.431C110.81 23.0587 110.016 24.014 108.655 24.014C107.455 24.014 106.784 23.3595 106.784 22.0325V16.9017H104.559V22.1387C104.559 24.3149 105.919 25.8187 107.967 25.8187C109.574 25.8187 110.316 25.111 110.669 24.3679H110.845V25.6771H113.034Z" fill="#222222"/>
<path d="M115.008 16.9018V25.6772H117.233V20.4403C117.233 19.2372 117.798 18.5649 118.822 18.5649C119.705 18.5649 120.235 19.0603 120.235 20.0156V25.6772H122.46V20.4403C122.46 19.2372 123.025 18.5649 124.049 18.5649C124.932 18.5649 125.461 19.0603 125.461 20.0156V25.6772H127.687V19.9095C127.687 17.7864 126.379 16.7603 124.755 16.7603C123.325 16.7603 122.672 17.3972 122.248 18.1403H122.071C121.665 17.3088 120.941 16.7603 119.67 16.7603C118.398 16.7603 117.709 17.3264 117.375 17.9987H117.198V16.9018H115.008Z" fill="#222222"/>
</svg>
