<svg width="138" height="37" viewBox="0 0 138 37" fill="none" xmlns="http://www.w3.org/2000/svg">
<path d="M11.3079 32.6909L8.05542 27.0575L12.8286 18.8129L15.8617 24.0668L33.7669 24.0572L28.6862 32.7687L11.3079 32.6909Z" fill="#222222"/>
<path d="M36.9641 18.4633L33.7117 24.0966L24.1851 24.0854L27.2185 18.8316L18.2576 3.33008L28.3423 3.37433L36.9641 18.4633Z" fill="#222222"/>
<path d="M11.809 3.30005H18.3139L23.0674 11.5561L17.0007 11.5558L8.05657 27.067L3.05249 18.3113L11.809 3.30005Z" fill="#222222"/>
<path fill-rule="evenodd" clip-rule="evenodd" d="M19.107 1.99569L19.0876 1.96204H11.0406L1.50757 18.3045L8.05151 29.7545L8.05954 29.7406L10.5334 34.0255L29.4528 34.1101L36.0969 22.7178H36.0527L38.5071 18.4667L29.1207 2.03962L19.107 1.99569ZM25.3318 12.8941H25.382L20.6517 4.6786L27.5638 4.70891L35.421 18.4598L32.9617 22.7196L26.5167 22.723L28.7638 18.8311L25.3318 12.8941ZM17.4683 4.6381L20.6937 10.2179L16.2279 10.2178L8.58238 23.4767L8.06086 24.3776L4.59773 18.3181L12.5777 4.6381H17.4683ZM14.3672 18.8017L17.7738 12.8939L22.2408 12.8941L25.6732 18.8319L23.4256 22.7247L16.6341 22.7284L14.3672 18.8017ZM9.6036 27.0628L10.8996 24.8153L12.8269 21.4862L15.0894 25.4053L21.8799 25.4016L21.8689 25.4206L31.4161 25.4319L27.9196 31.4272L12.0824 31.3563L9.6036 27.0628Z" fill="#222222"/>
<path d="M87.2459 11.755C88.1623 11.755 88.9068 11.0104 88.9068 10.075C88.9068 9.13951 88.1623 8.41406 87.2459 8.41406C86.3105 8.41406 85.5659 9.13951 85.5659 10.075C85.5659 11.0104 86.3105 11.755 87.2459 11.755ZM85.7568 22.7895H88.7159V13.2441H85.7568V22.7895Z" fill="#222222"/>
<path d="M90.4384 27.3713H93.3403V21.8349C93.8939 22.5604 95.1539 23.0567 96.4712 23.0567C99.3157 23.0567 101.034 20.8804 100.958 17.864C100.881 14.7903 99.1057 12.9385 96.4521 12.9385C95.0966 12.9385 93.8175 13.5303 93.283 14.4085L93.1303 13.244H90.4384V27.3713ZM93.3975 18.0167C93.3975 16.5849 94.3521 15.6304 95.7266 15.6304C97.1203 15.6304 97.9985 16.604 97.9985 18.0167C97.9985 19.4294 97.1203 20.4031 95.7266 20.4031C94.3521 20.4031 93.3975 19.4485 93.3975 18.0167Z" fill="#222222"/>
<path d="M101.271 19.7731C101.347 21.7013 102.875 23.0376 105.28 23.0376C107.59 23.0376 109.194 21.8158 109.194 19.8494C109.194 18.4367 108.354 17.5013 106.788 17.1194L105.089 16.6994C104.478 16.5467 104.096 16.394 104.096 15.8976C104.096 15.4013 104.497 15.0767 105.089 15.0767C105.757 15.0767 106.196 15.5158 106.177 16.1649H108.831C108.755 14.1794 107.246 12.9385 105.146 12.9385C103.027 12.9385 101.443 14.1985 101.443 16.1076C101.443 17.3867 102.149 18.4367 104.039 18.9331L105.719 19.3722C106.215 19.5058 106.425 19.7349 106.425 20.0594C106.425 20.5367 105.986 20.8422 105.242 20.8422C104.383 20.8422 103.925 20.4413 103.925 19.7731H101.271Z" fill="#222222"/>
<path d="M113.694 23.0376C114.858 23.0376 116.023 22.5031 116.615 21.7204L116.806 22.7894H119.574V13.244H116.634V18.2076C116.634 19.6394 116.214 20.4222 114.858 20.4222C113.808 20.4222 113.121 19.9449 113.121 18.1694V13.244H110.181V19.2385C110.181 21.5104 111.441 23.0376 113.694 23.0376Z" fill="#222222"/>
<path d="M124.236 22.7894V17.5776C124.236 15.974 125.095 15.5158 125.935 15.5158C126.871 15.5158 127.482 16.0885 127.482 17.2722V22.7894H130.383V17.5776C130.383 15.9549 131.223 15.4967 132.063 15.4967C132.999 15.4967 133.629 16.0694 133.629 17.2722V22.7894H136.492V16.5467C136.492 14.3703 135.347 12.9194 132.884 12.9194C131.51 12.9194 130.383 13.5876 129.887 14.6185C129.314 13.5876 128.322 12.9194 126.737 12.9194C125.687 12.9194 124.713 13.3967 124.141 14.1603L124.026 13.244H121.277V22.7894H124.236Z" fill="#222222"/>
<path d="M46.9241 8.66357H43.7932V22.7909H52.4605V20.0227H46.9241V8.66357Z" fill="#222222"/>
<path d="M52.7595 17.9991C52.7595 21.0154 54.7832 23.02 57.8377 23.02C60.8732 23.02 62.8968 21.0154 62.8968 17.9991C62.8968 14.9827 60.8732 12.959 57.8377 12.959C54.7832 12.959 52.7595 14.9827 52.7595 17.9991ZM55.7186 17.98C55.7186 16.5481 56.5586 15.5936 57.8377 15.5936C59.0977 15.5936 59.9377 16.5481 59.9377 17.98C59.9377 19.4309 59.0977 20.3854 57.8377 20.3854C56.5586 20.3854 55.7186 19.4309 55.7186 17.98Z" fill="#222222"/>
<path d="M63.3696 17.8463C63.3696 20.7291 65.2406 22.6763 67.8942 22.6763C69.1733 22.6763 70.2806 22.2182 70.8342 21.4736V22.7909C70.8342 24.1082 70.0133 24.9863 68.5624 24.9863C67.2642 24.9863 66.3669 24.3754 66.3096 23.2872H63.3315C63.5987 25.9027 65.6224 27.6591 68.3906 27.6591C71.6551 27.6591 73.7169 25.54 73.7169 22.18V13.2454H71.0633L70.9106 14.2191C70.376 13.4363 69.2497 12.9209 67.9515 12.9209C65.2787 12.9209 63.3696 14.9254 63.3696 17.8463ZM66.3478 17.77C66.3478 16.3954 67.2642 15.4791 68.4287 15.4791C69.7842 15.4791 70.7769 16.3763 70.7769 17.77C70.7769 19.1636 69.8033 20.1181 68.4478 20.1181C67.2833 20.1181 66.3478 19.1636 66.3478 17.77Z" fill="#222222"/>
<path d="M74.5739 17.9991C74.5739 21.0154 76.5975 23.02 79.6521 23.02C82.6875 23.02 84.7112 21.0154 84.7112 17.9991C84.7112 14.9827 82.6875 12.959 79.6521 12.959C76.5975 12.959 74.5739 14.9827 74.5739 17.9991ZM77.533 17.98C77.533 16.5481 78.373 15.5936 79.6521 15.5936C80.9121 15.5936 81.7521 16.5481 81.7521 17.98C81.7521 19.4309 80.9121 20.3854 79.6521 20.3854C78.373 20.3854 77.533 19.4309 77.533 17.98Z" fill="#222222"/>
</svg>
