<svg width="153" height="39" viewBox="0 0 153 39" fill="none" xmlns="http://www.w3.org/2000/svg">
<g clip-path="url(#clip0_0_627)">
<path d="M44.554 26.7229H55.504V23.3863H48.4458V10.8185H44.554V26.7229Z" fill="#222222"/>
<path d="M61.9915 24.4985C60.4304 24.4985 59.6168 23.1194 59.6168 21.0507C59.6168 18.982 60.4304 17.5806 61.9915 17.5806C63.5527 17.5806 64.3882 18.982 64.3882 21.0507C64.3882 23.1194 63.5527 24.4985 61.9915 24.4985ZM62.0135 27.0788C65.6415 27.0788 68.0162 24.4762 68.0162 21.0507C68.0162 17.6251 65.6415 15.0226 62.0135 15.0226C58.4074 15.0226 55.9888 17.6251 55.9888 21.0507C55.9888 24.4762 58.4074 27.0788 62.0135 27.0788Z" fill="#222222"/>
<path d="M74.296 30.6601C75.9671 30.6601 77.4403 30.2819 78.4298 29.3922C79.3313 28.5691 79.9249 27.3235 79.9249 25.6107V15.334H76.4948V16.5574H76.4508C75.7912 15.601 74.7797 15.0004 73.2846 15.0004C70.4921 15.0004 68.5571 17.3582 68.5571 20.6948C68.5571 24.1871 70.9099 26.1001 73.4385 26.1001C74.8017 26.1001 75.6593 25.544 76.3189 24.7877H76.4069V25.9221C76.4069 27.3012 75.7692 28.102 74.252 28.102C73.0647 28.102 72.471 27.5904 72.2731 26.9898H68.799C69.1508 29.3699 71.1957 30.6601 74.296 30.6601ZM74.274 23.4086C72.9327 23.4086 72.0532 22.2964 72.0532 20.5836C72.0532 18.8486 72.9327 17.7364 74.274 17.7364C75.7692 17.7364 76.5608 19.0265 76.5608 20.5613C76.5608 22.1629 75.8352 23.4086 74.274 23.4086Z" fill="#222222"/>
<path d="M86.9778 24.4985C85.4167 24.4985 84.6031 23.1194 84.6031 21.0507C84.6031 18.982 85.4167 17.5806 86.9778 17.5806C88.539 17.5806 89.3745 18.982 89.3745 21.0507C89.3745 23.1194 88.539 24.4985 86.9778 24.4985ZM86.9998 27.0788C90.6278 27.0788 93.0028 24.4762 93.0028 21.0507C93.0028 17.6251 90.6278 15.0226 86.9998 15.0226C83.3938 15.0226 80.9751 17.6251 80.9751 21.0507C80.9751 24.4762 83.3938 27.0788 86.9998 27.0788Z" fill="#222222"/>
<path d="M94.0493 26.7229H97.6334V15.334H94.0493V26.7229ZM94.0493 13.7547H97.6334V10.8185H94.0493V13.7547Z" fill="#222222"/>
<path d="M99.188 30.4821H102.772V25.544H102.816C103.52 26.5005 104.553 27.0788 106.004 27.0788C108.951 27.0788 110.908 24.721 110.908 21.0285C110.908 17.6029 109.083 15.0004 106.092 15.0004C104.553 15.0004 103.454 15.6899 102.684 16.7131H102.618V15.334H99.188V30.4821ZM105.081 24.2761C103.542 24.2761 102.662 23.0082 102.662 21.1619C102.662 19.3157 103.454 17.9143 105.015 17.9143C106.554 17.9143 107.28 19.2045 107.28 21.1619C107.28 23.0971 106.444 24.2761 105.081 24.2761Z" fill="#222222"/>
<path d="M116.744 27.0788C119.69 27.0788 121.867 25.7887 121.867 23.2973C121.867 20.3834 119.536 19.8718 117.557 19.5381C116.128 19.2712 114.853 19.16 114.853 18.3592C114.853 17.6474 115.534 17.3137 116.414 17.3137C117.403 17.3137 118.085 17.6251 118.217 18.6484H121.515C121.339 16.4017 119.624 15.0004 116.436 15.0004C113.775 15.0004 111.576 16.246 111.576 18.6484C111.576 21.3176 113.665 21.8515 115.622 22.1851C117.117 22.4521 118.481 22.5633 118.481 23.5865C118.481 24.3206 117.799 24.721 116.722 24.721C115.534 24.721 114.787 24.1649 114.655 23.0304H111.269C111.378 25.544 113.445 27.0788 116.744 27.0788Z" fill="#222222"/>
<path d="M126.734 27.0565C128.296 27.0565 129.285 26.4337 130.099 25.3215H130.165V26.7229H133.595V15.334H130.011V21.6957C130.011 23.0526 129.263 23.9869 128.032 23.9869C126.888 23.9869 126.339 23.2973 126.339 22.0516V15.334H122.777V22.8079C122.777 25.3437 124.14 27.0565 126.734 27.0565Z" fill="#222222"/>
<path d="M135.154 26.7229H138.738V20.3389C138.738 18.982 139.398 18.0255 140.519 18.0255C141.596 18.0255 142.102 18.7373 142.102 19.9608V26.7229H145.686V20.3389C145.686 18.982 146.324 18.0255 147.467 18.0255C148.545 18.0255 149.05 18.7373 149.05 19.9608V26.7229H152.634V19.3157C152.634 16.7576 151.359 15.0004 148.808 15.0004C147.357 15.0004 146.148 15.6232 145.268 17.0023H145.224C144.653 15.7789 143.531 15.0004 142.058 15.0004C140.431 15.0004 139.354 15.7789 138.65 16.9578H138.584V15.334H135.154V26.7229Z" fill="#222222"/>
<path fill-rule="evenodd" clip-rule="evenodd" d="M7.92875 3.64283C6.61803 4.57 5.43278 5.6662 4.40388 6.9002C8.60845 6.50531 13.9502 7.15012 20.1519 10.2871C26.7745 13.6368 32.1074 13.7501 35.8188 13.0259C35.482 11.9944 35.058 11.0031 34.5558 10.0607C30.3073 10.514 24.8607 9.91396 18.5131 6.70333C14.4823 4.66449 10.9292 3.82462 7.92875 3.64283ZM32.074 6.48707C28.7189 2.69481 23.8432 0.308228 18.4163 0.308228C16.8227 0.308228 15.2764 0.514083 13.8022 0.900916C15.7988 1.45201 17.9197 2.25826 20.1519 3.3874C24.7993 5.73808 28.8115 6.49496 32.074 6.48707ZM36.6122 16.6464C32.1285 17.5421 25.937 17.3582 18.5131 13.603C11.5726 10.0924 6.0485 10.1366 2.32288 10.9742C2.13057 11.0173 1.9428 11.0628 1.75955 11.11C1.27178 12.1832 0.882419 13.3117 0.60305 14.4836C0.901431 14.403 1.20976 14.3263 1.52788 14.2548C6.04771 13.2387 12.4339 13.2828 20.1519 17.1868C27.0925 20.6974 32.6166 20.6532 36.3423 19.8156C36.4699 19.787 36.5957 19.7573 36.7193 19.7268C36.7329 19.4345 36.7397 19.1404 36.7397 18.8448C36.7397 18.101 36.6964 17.3674 36.6122 16.6464ZM36.1211 23.6386C31.6809 24.4239 25.6696 24.1225 18.5131 20.5027C11.5726 16.9921 6.0485 17.0363 2.32288 17.8738C1.4959 18.0597 0.751961 18.2861 0.0957019 18.5251C0.0939127 18.6314 0.0930176 18.738 0.0930176 18.8448C0.0930176 29.0823 8.29665 37.3814 18.4163 37.3814C26.8974 37.3814 34.0327 31.5525 36.1211 23.6386Z" fill="#222222"/>
</g>
<defs>
<clipPath id="clip0_0_627">
<rect width="153" height="38" fill="white" transform="translate(0 0.0361328)"/>
</clipPath>
</defs>
</svg>
