<svg width="46" height="46" viewBox="0 0 46 46" fill="none" xmlns="http://www.w3.org/2000/svg">
<path d="M17.6787 6.62363C17.8542 6.79909 18.0841 6.88678 18.314 6.88678C18.5439 6.88678 18.7739 6.79909 18.9493 6.62363C19.3002 6.27279 19.3002 5.7039 18.9493 5.35297L16.9149 3.31854C16.5641 2.96779 15.9952 2.96779 15.6442 3.31854C15.2934 3.66938 15.2934 4.23827 15.6442 4.5892L17.6787 6.62363Z" fill="#222222"/>
<path d="M26.7874 6.88672C27.0173 6.88672 27.2473 6.79903 27.4227 6.62356L29.4571 4.58914C29.808 4.2383 29.808 3.66941 29.4571 3.31848C29.1063 2.96773 28.5374 2.96773 28.1865 3.31848L26.152 5.3529C25.8012 5.70374 25.8012 6.27263 26.152 6.62356C26.3275 6.79903 26.5575 6.88672 26.7874 6.88672Z" fill="#222222"/>
<path d="M22.5508 4.67394C23.047 4.67394 23.4492 4.27171 23.4492 3.7755V0.898438C23.4492 0.402231 23.047 0 22.5508 0C22.0546 0 21.6523 0.402231 21.6523 0.898438V3.7755C21.6523 4.27171 22.0546 4.67394 22.5508 4.67394Z" fill="#222222"/>
<path d="M38.5045 24.7432C38.1322 24.3709 37.6851 24.1009 37.1972 23.9471C37.5551 23.4182 37.747 22.7958 37.746 22.1448C37.746 21.283 37.4106 20.473 36.8017 19.8639C36.3605 19.4228 35.8142 19.1251 35.2194 18.9944C35.344 18.6481 35.4086 18.2793 35.408 17.9008C35.408 17.0391 35.0726 16.229 34.4637 15.62C34.1074 15.2637 33.6826 15.001 33.219 14.8443L36.932 11.1313C37.5422 10.521 37.8776 9.7106 37.8763 8.85052C37.8763 7.97338 37.5308 7.15328 36.9032 6.54118C35.6458 5.31517 33.5931 5.34715 32.3276 6.61251L22.517 16.4231C22.4425 15.9638 22.368 15.5045 22.2933 15.0451C22.0137 13.3225 21.0928 11.796 19.6993 10.7462C18.8504 10.1082 17.6883 10.1907 16.9363 10.9427C16.5866 11.2925 16.3718 11.761 16.3313 12.2624L15.6377 20.9284C15.5043 22.5927 14.7807 24.1594 13.6001 25.34L12.9041 26.0359L12.7163 25.8481C12.3654 25.4973 11.7966 25.4973 11.4457 25.8481L6.81418 30.4795C6.64572 30.6481 6.55103 30.8765 6.55103 31.1148C6.55103 31.3531 6.64572 31.5816 6.81418 31.7501L10.9488 35.8847C11.2996 36.2354 11.8685 36.2354 12.2194 35.8847C12.5703 35.5338 12.5703 34.965 12.2194 34.614L8.72012 31.1148L12.0812 27.7538L24.7973 40.47L21.4363 43.8309L17.9371 40.3316C17.5863 39.9808 17.0174 39.9808 16.6664 40.3316C16.3156 40.6824 16.3156 41.2513 16.6664 41.6023L20.8011 45.7369C20.9765 45.9122 21.2064 46 21.4363 46C21.6662 46 21.8962 45.9122 22.0716 45.7369L26.7032 41.1053C27.054 40.7545 27.054 40.1856 26.7032 39.8347L26.5211 39.6526C26.7939 39.405 27.0898 39.183 27.406 38.9934L29.2872 37.8652C30.3749 37.2132 31.3816 36.4275 32.2793 35.5299L38.5046 29.3046C39.1148 28.6944 39.4501 27.884 39.4489 27.0238C39.4488 26.1622 39.1135 25.3522 38.5045 24.7432ZM37.2339 28.0341L31.0086 34.2594C30.2151 35.0531 29.325 35.7478 28.3632 36.3243L26.4819 37.4525C26.0397 37.7178 25.6261 38.0294 25.2486 38.3802L14.1749 27.3064L14.8708 26.6105C16.353 25.1283 17.2615 23.1613 17.429 21.0718L18.1226 12.4062C18.1289 12.3279 18.1574 12.263 18.2071 12.2133C18.2744 12.146 18.4473 12.0529 18.619 12.182C19.6397 12.9511 20.3147 14.0701 20.5198 15.3332C20.6884 16.3705 20.8562 17.4071 21.024 18.4435C21.078 18.7765 21.3138 19.0512 21.6348 19.1548C21.9557 19.2586 22.3077 19.1737 22.5463 18.9352L33.5981 7.88317C34.1718 7.30952 35.0917 7.28463 35.6487 7.82765C35.9264 8.09862 36.0794 8.46195 36.0794 8.85187C36.08 9.23227 35.9315 9.59065 35.6614 9.86072C33.7697 11.7523 28.8944 16.6276 27.0687 18.4534C26.7179 18.8042 26.7179 19.3731 27.0687 19.724C27.2442 19.8994 27.4741 19.9871 27.704 19.9871C27.9339 19.9871 28.1639 19.8993 28.3393 19.724L31.1726 16.8905C31.7296 16.3337 32.6361 16.3335 33.193 16.8906C33.4626 17.1603 33.6112 17.519 33.6112 17.9021C33.6117 18.2826 33.4632 18.6409 33.193 18.911C32.59 19.514 30.9828 21.1213 30.3596 21.7444C30.0088 22.0952 30.0088 22.6641 30.3596 23.015C30.5351 23.1905 30.765 23.2782 30.9949 23.2782C31.2248 23.2782 31.4548 23.1905 31.6302 23.015L33.5106 21.1346C33.7806 20.8646 34.1393 20.7158 34.5208 20.7158C34.9023 20.7158 35.261 20.8645 35.531 21.1346C35.8006 21.4042 35.9492 21.763 35.9492 22.146C35.9497 22.5265 35.8012 22.8848 35.531 23.1549C35.322 23.364 33.817 24.8689 33.6506 25.0353C33.2998 25.3862 33.2998 25.9551 33.6506 26.306C33.8261 26.4815 34.056 26.5691 34.2859 26.5691C34.5158 26.5691 34.7458 26.4815 34.9212 26.306L35.2133 26.0138C35.4833 25.7438 35.8422 25.5951 36.2235 25.5951C36.605 25.5951 36.9638 25.7438 37.2337 26.0138C37.5034 26.2834 37.6519 26.6422 37.6519 27.0253C37.6525 27.4057 37.504 27.764 37.2339 28.0341Z" fill="#222222"/>
<path d="M14.4429 39.0067C14.9391 39.0067 15.3413 38.6044 15.3413 38.1082C15.3413 37.612 14.9391 37.2098 14.4429 37.2098C13.9467 37.2098 13.5444 37.612 13.5444 38.1082C13.5444 38.6044 13.9467 39.0067 14.4429 39.0067Z" fill="#222222"/>
</svg>
